<?xml version="1.0" encoding="utf-8"?>
<!-- Generator: Adobe Illustrator 23.0.2, SVG Export Plug-In . SVG Version: 6.00 Build 0)  -->
<svg version="1.1" id="Ebene_1" xmlns="http://www.w3.org/2000/svg" xmlns:xlink="http://www.w3.org/1999/xlink" x="0px" y="0px"
	 viewBox="0 0 398.74 446.39" style="enable-background:new 0 0 398.74 446.39;" xml:space="preserve">
<style type="text/css">
	.st0{display:none;fill:#FFFFFF;}
	.st1{fill:none;stroke:#000000;stroke-miterlimit:10;}
	.st2{font-family:'PTSans-Regular';}
	.st3{font-size:41.004px;}
	.st4{stroke:#000000;stroke-miterlimit:10;}
</style>
<g>
	<rect x="-135.26" y="-131.14" class="st0" width="683.5" height="683.5"/>
	<g id="Ebene_4">
		<g>
			<path class="st1" d="M245.2,108.5"/>
		</g>
		<g>
			<rect x="199.96" y="124.88" width="1" height="68.81"/>
		</g>
		<g>
			<rect x="216.93" y="120.9" transform="matrix(2.929649e-03 -1 1 2.929649e-03 139.7541 382.957)" width="89.98" height="1"/>
		</g>
		<g>
			<rect x="243.91" y="170.32" transform="matrix(0.7221 -0.6918 0.6918 0.7221 -46.6946 225.3971)" width="26.56" height="1"/>
		</g>
		<g>
			<rect x="270.24" y="160.78" transform="matrix(0.917 -0.3988 0.3988 0.917 -45.6539 122.1451)" width="1" height="20.04"/>
		</g>
		<g>
			<rect x="273.57" y="158.64" transform="matrix(0.7089 -0.7053 0.7053 0.7089 -39.4007 242.4892)" width="1" height="20.68"/>
		</g>
		<g>
			<rect x="189.98" y="125.85" transform="matrix(0.6432 -0.7657 0.7657 0.6432 -38.3841 195.4102)" width="1" height="26.08"/>
		</g>
		<g>
			<path class="st1" d="M180.09,130.07"/>
		</g>
		<g>
			<path class="st1" d="M161.32,147.25"/>
		</g>
		<g>
			<path class="st1" d="M143.2,149.37"/>
		</g>
		<g>
			<path class="st1" d="M128.07,129.43"/>
		</g>
		<g>
			<path class="st1" d="M111.39,153.24"/>
		</g>
		<polyline class="st1" points="200.46,147.25 161.32,147.25 161.32,175.21 200.46,175.21 		"/>
		<polyline class="st1" points="161.32,147.37 145.34,151.82 145.34,177.96 147.4,177.57 152.53,176.66 161.32,175.21 		"/>
		<path class="st1" d="M127.76,129.67"/>
		<path class="st1" d="M114.18,153.64"/>
		<path class="st1" d="M127.76,129.67"/>
		<line class="st1" x1="142.94" y1="149.64" x2="142.94" y2="149.64"/>
		<line class="st1" x1="145.34" y1="149.64" x2="134.75" y2="137.6"/>
		<polyline class="st1" points="161.32,147.37 166.89,142.45 180.49,130.47 		"/>
		<polyline class="st1" points="145.34,205.41 145.34,178.09 145.34,177.96 145.34,149.64 130.96,149.64 130.96,208.47 		"/>
		<polyline class="st1" points="200.46,47.39 209.37,51.66 209.37,59.38 		"/>
		<polyline class="st1" points="218.13,63.65 218.13,55.81 226.88,60.02 226.88,67.67 		"/>
		<polyline class="st1" points="209.37,59.39 215.64,62.43 218.15,63.64 		"/>
		<line class="st1" x1="226.88" y1="67.67" x2="235.73" y2="71.92"/>
		<polyline class="st1" points="235.7,71.88 235.7,64.04 244.45,68.25 244.45,75.9 		"/>
		<line class="st1" x1="244.4" y1="75.84" x2="253.3" y2="80.1"/>
		<polyline class="st1" points="253.28,80.05 253.28,72.21 262.03,76.41 		"/>
		<line class="st1" x1="200.46" y1="124.88" x2="261.87" y2="141.93"/>
		<polyline class="st1" points="191.68,59.17 191.68,51.66 200.46,47.39 		"/>
		<polyline class="st1" points="156.52,75.76 156.52,68.25 165.31,64.04 165.31,71.88 		"/>
		<polyline class="st1" points="174.1,67.52 174.1,60.02 182.89,55.81 182.89,63.64 		"/>
		<line class="st1" x1="191.68" y1="59.17" x2="182.89" y2="63.64"/>
		<line class="st1" x1="156.52" y1="75.76" x2="147.74" y2="80.28"/>
		<line class="st1" x1="174.1" y1="67.52" x2="165.31" y2="71.88"/>
		<polyline class="st1" points="138.95,142.37 138.95,76.41 147.74,72.21 147.74,80.28 		"/>
		<line class="st1" x1="200.46" y1="47.39" x2="200.46" y2="124.88"/>
		<line class="st1" x1="134.75" y1="137.6" x2="130.96" y2="149.64"/>
		<path class="st1" d="M130.16,133.67"/>
		<path class="st1" d="M127.76,138.46"/>
		<line class="st1" x1="200.46" y1="124.88" x2="138.95" y2="141.92"/>
		<polyline class="st1" points="165.31,64.04 167.71,65.56 167.71,70.64 167.71,70.55 		"/>
		<polyline class="st1" points="147.74,72.21 150.13,73.55 150.13,79.05 		"/>
		<line class="st1" x1="134.75" y1="137.6" x2="124.42" y2="151.26"/>
		<polyline class="st1" points="215.64,62.43 215.64,57.2 218.13,55.81 		"/>
		<polyline class="st1" points="253.28,72.21 250.79,73.55 250.79,78.9 		"/>
		<polyline class="st1" points="235.7,64.04 233.22,65.56 233.22,70.72 233.22,70.55 		"/>
		<line class="st1" x1="161.32" y1="163.22" x2="200.46" y2="163.22"/>
		<path class="st1" d="M122.75,150.66"/>
		<path class="st1" d="M131.76,146.45"/>
		<path class="st1" d="M131.76,141.14"/>
		<path class="st1" d="M131.76,143.57"/>
		<line class="st1" x1="161.32" y1="163.22" x2="145.34" y2="166.42"/>
		<line class="st1" x1="181.29" y1="175.21" x2="200.46" y2="163.22"/>
		<line class="st1" x1="181.29" y1="175.21" x2="161.32" y2="163.22"/>
		<path class="st1" d="M161.32,163.22"/>
		<path class="st1" d="M178.89,175.21"/>
		<path class="st1" d="M161.32,164.82"/>
		<path class="st1" d="M200.46,164.82"/>
		<path class="st1" d="M183.69,175.21"/>
		<line class="st1" x1="181.29" y1="163.22" x2="181.29" y2="175.21"/>
		<polyline class="st1" points="149.33,153.87 149.33,162.43 157.32,160.81 157.32,152.04 		"/>
		<path class="st1" d="M140.55,144.05"/>
		<path class="st1" d="M142.94,146.45"/>
		<path class="st1" d="M144.54,148.84"/>
		<line class="st1" x1="170.11" y1="200.13" x2="170.11" y2="175.21"/>
		<g>
			<polygon class="st1" points="149.33,153.64 157.32,151.78 157.32,160.83 149.33,162.48 			"/>
			<path class="st1" d="M157.32,159.32"/>
			<line class="st1" x1="149.33" y1="159.53" x2="157.32" y2="157.81"/>
			<path class="st1" d="M157.32,156.3"/>
			<line class="st1" x1="149.33" y1="156.59" x2="157.32" y2="154.79"/>
			<path class="st1" d="M157.32,153.28"/>
			<path class="st1" d="M149.33,155.11"/>
			<path class="st1" d="M155.97,161.11"/>
			<path class="st1" d="M155.97,152.09"/>
			<path class="st1" d="M154.62,161.39"/>
			<path class="st1" d="M154.62,152.41"/>
			<path class="st1" d="M153.28,161.66"/>
			<path class="st1" d="M153.28,152.72"/>
			<path class="st1" d="M151.96,161.94"/>
			<path class="st1" d="M151.96,153.03"/>
			<path class="st1" d="M150.64,162.21"/>
			<path class="st1" d="M150.64,153.33"/>
		</g>
		<g>
			<rect x="134.04" y="154.56" class="st1" width="8.39" height="7.74"/>
			<path class="st1" d="M142.42,161.01"/>
			<line class="st1" x1="134.04" y1="159.72" x2="142.42" y2="159.72"/>
			<path class="st1" d="M142.42,158.43"/>
			<line class="st1" x1="134.04" y1="157.14" x2="142.42" y2="157.14"/>
			<path class="st1" d="M142.42,155.85"/>
			<path class="st1" d="M141.03,162.3"/>
			<path class="st1" d="M138.23,162.3"/>
			<path class="st1" d="M136.83,162.3"/>
			<path class="st1" d="M136.83,154.56"/>
			<path class="st1" d="M135.43,162.3"/>
		</g>
		<g>
			<rect x="166.51" y="150.44" class="st1" width="10.39" height="9.59"/>
			<path class="st1" d="M176.9,158.43"/>
			<line class="st1" x1="166.51" y1="156.83" x2="176.9" y2="156.83"/>
			<path class="st1" d="M176.9,155.24"/>
			<line class="st1" x1="166.51" y1="153.64" x2="176.9" y2="153.64"/>
			<path class="st1" d="M176.9,152.04"/>
			<path class="st1" d="M175.17,160.03"/>
			<path class="st1" d="M173.43,160.03"/>
			<path class="st1" d="M173.43,150.44"/>
			<path class="st1" d="M171.7,160.03"/>
			<path class="st1" d="M169.97,160.03"/>
			<path class="st1" d="M169.97,150.44"/>
			<path class="st1" d="M168.24,160.03"/>
		</g>
		<g>
			<rect x="185.68" y="150.44" class="st1" width="10.39" height="9.59"/>
			<path class="st1" d="M196.07,158.43"/>
			<line class="st1" x1="185.68" y1="156.83" x2="196.07" y2="156.83"/>
			<path class="st1" d="M196.07,155.24"/>
			<line class="st1" x1="185.68" y1="153.64" x2="196.07" y2="153.64"/>
			<path class="st1" d="M196.07,152.04"/>
			<path class="st1" d="M194.34,160.03"/>
			<path class="st1" d="M192.61,160.03"/>
			<path class="st1" d="M192.61,150.44"/>
			<path class="st1" d="M190.88,160.03"/>
			<path class="st1" d="M189.15,160.03"/>
			<path class="st1" d="M189.15,150.44"/>
			<path class="st1" d="M187.41,160.03"/>
		</g>
		<polyline class="st1" points="264.38,180 247.6,180 247.6,183.6 		"/>
		<polygon class="st1" points="176.5,100.91 184.49,98.04 184.49,85.73 176.5,88.87 		"/>
		<polygon class="st1" points="150.68,109.46 157.55,106.97 157.55,96.4 150.68,99.09 		"/>
		<polygon class="st1" points="224.43,100.91 216.44,98.02 216.44,87.59 216.44,85.73 224.43,88.89 		"/>
		<polygon class="st1" points="250.25,109.46 243.38,106.95 243.38,96.4 250.25,99.1 		"/>
		<polygon class="st1" points="224.43,152.04 216.44,150.28 216.44,139.26 224.43,141.26 		"/>
		<polygon class="st1" points="250.25,157.56 243.38,156.03 243.38,146.56 250.25,148.26 		"/>
		<line class="st1" x1="152.53" y1="176.66" x2="170.11" y2="175.21"/>
		<line class="st1" x1="152.53" y1="203.89" x2="152.53" y2="176.66"/>
		<path class="st1" d="M200.46,216.75"/>
		<path class="st1" d="M248,180.4"/>
		<path class="st1" d="M267.17,143.65"/>
		<path class="st1" d="M267.17,185.19"/>
		<polyline class="st1" points="130.96,149.64 124.42,151.26 124.42,209.86 		"/>
		<line class="st1" x1="161.32" y1="163.22" x2="145.34" y2="177.96"/>
		<path class="st1" d="M147.47,177.64"/>
		<path class="st1" d="M161.32,164.82"/>
		<line class="st1" x1="145.34" y1="166.42" x2="161.32" y2="175.21"/>
		<path class="st1" d="M159.1,175.49"/>
		<path class="st1" d="M145.34,167.84"/>
		<line class="st1" x1="138.23" y1="154.56" x2="138.23" y2="162.3"/>
		<line class="st1" x1="153.33" y1="152.84" x2="153.33" y2="161.63"/>
		<line class="st1" x1="171.7" y1="150.44" x2="171.7" y2="160.03"/>
		<line class="st1" x1="190.88" y1="150.44" x2="190.88" y2="160.03"/>
		<g>
			<path class="st1" d="M268.3,198.51"/>
			<path class="st1" d="M253.59,196.25"/>
			<path class="st1" d="M268.3,193.98"/>
			<path class="st1" d="M268.3,191.72"/>
			<path class="st1" d="M253.59,191.72"/>
			<path class="st1" d="M268.3,189.46"/>
			<path class="st1" d="M265.85,200.77"/>
			<path class="st1" d="M263.4,187.19"/>
			<path class="st1" d="M260.95,200.77"/>
			<path class="st1" d="M258.49,200.77"/>
			<path class="st1" d="M258.49,187.19"/>
			<path class="st1" d="M256.04,200.77"/>
		</g>
		<path class="st1" d="M260.95,200.77"/>
		<path class="st1" d="M152.53,99.79"/>
		<path class="st1" d="M157.55,97.83"/>
		<path class="st1" d="M186.08,87.33"/>
		<polyline class="st1" points="157.55,97.94 152.68,99.85 150.68,99.09 		"/>
		<line class="st1" x1="152.69" y1="99.72" x2="152.69" y2="108.73"/>
		<polyline class="st1" points="184.49,87.62 178.95,89.78 176.5,88.87 		"/>
		<line class="st1" x1="178.89" y1="89.67" x2="178.89" y2="100.05"/>
		<path class="st1" d="M222.12,89.63"/>
		<path class="st1" d="M224.43,88.94"/>
		<path class="st1" d="M216.44,87.6"/>
		<path class="st1" d="M222.19,89.63"/>
		<line class="st1" x1="222.03" y1="89.78" x2="222.03" y2="100.04"/>
		<polyline class="st1" points="224.42,88.93 221.96,89.79 216.42,87.63 		"/>
		<polyline class="st1" points="243.38,97.9 248.02,99.71 250.25,99.1 		"/>
		<line class="st1" x1="248" y1="99.73" x2="248" y2="108.64"/>
		<polyline class="st1" points="216.44,140.84 221.63,142.13 224.43,141.26 		"/>
		<line class="st1" x1="221.63" y1="142.09" x2="221.63" y2="151.43"/>
		<polyline class="st1" points="243.38,148.06 247.24,149 250.11,148.26 		"/>
		<line class="st1" x1="247.2" y1="149.07" x2="247.2" y2="156.88"/>
		<polyline class="st1" points="161.32,147.37 166.89,142.45 180.49,130.47 		"/>
		<line class="st1" x1="166.17" y1="143.09" x2="144.8" y2="149.09"/>
		<line class="st1" x1="171.75" y1="138.21" x2="142.53" y2="146.53"/>
		<line class="st1" x1="176.85" y1="133.68" x2="140.54" y2="144.02"/>
		<line class="st1" x1="131.76" y1="147.25" x2="126.46" y2="148.56"/>
		<line class="st1" x1="133.54" y1="141.46" x2="131.44" y2="141.98"/>
		<line class="st1" x1="132.97" y1="143.28" x2="129.83" y2="144.05"/>
		<line class="st1" x1="132.33" y1="145.3" x2="128.14" y2="146.34"/>
		<line class="st1" x1="134.08" y1="139.75" x2="132.86" y2="140.05"/>
		<line class="st1" x1="273.37" y1="176.81" x2="250.79" y2="176.81"/>
		<line class="st1" x1="267.81" y1="164.02" x2="264.27" y2="164.02"/>
		<line class="st1" x1="269.2" y1="167.22" x2="260.95" y2="167.22"/>
		<line class="st1" x1="270.59" y1="170.41" x2="257.6" y2="170.41"/>
		<line class="st1" x1="271.98" y1="173.61" x2="254.27" y2="173.61"/>
		<polyline class="st1" points="182.89,55.79 185.28,57.2 185.28,62.42 		"/>
	</g>
</g>
<g id="Ebene_3">
	<text transform="matrix(0.8561 -0.182 0.2079 0.9782 55.5115 263.7442)" class="st2 st3">PFADI ANGENSTEIN</text>
	<g>
		<g>
			<path class="st1" d="M327.36,212.85c-0.15,0.81-0.36,1.57-0.41,2.33c-0.07,1.18-0.44,1.72-1.57,1.96
				c-1.48,0.31-2.95,0.63-4.26,0.91c0.04-0.74,0.1-1.61,0.13-2.47c0.05-1.12,0.4-1.58,1.48-1.81c1.34-0.29,2.68-0.56,4.02-0.83
				C327.01,212.88,327.26,212.86,327.36,212.85z"/>
			<path class="st1" d="M382.22,204.89c-0.17,0.07-0.36,0.13-0.58,0.18c-1.48,0.31-2.95,0.63-4.26,0.91
				c0.04-0.74,0.1-1.61,0.13-2.47c0.05-1.12,0.4-1.58,1.48-1.81c0.9-0.19,1.8-0.38,2.71-0.57"/>
			<path class="st1" d="M376.58,202.28c-0.15,0.81-0.36,1.57-0.41,2.33c-0.07,1.18-0.44,1.72-1.57,1.96
				c-1.48,0.31-2.95,0.63-4.26,0.91c0.04-0.74,0.1-1.61,0.13-2.47c0.05-1.12,0.4-1.58,1.48-1.81c1.34-0.29,2.68-0.56,4.02-0.83
				C376.22,202.3,376.47,202.29,376.58,202.28z"/>
			<path class="st1" d="M306.24,217.23c-0.15,0.81-0.36,1.57-0.41,2.33c-0.07,1.18-0.44,1.72-1.57,1.96
				c-1.48,0.31-2.95,0.63-4.26,0.91c0.04-0.74,0.1-1.61,0.13-2.47c0.05-1.12,0.4-1.58,1.48-1.81c1.34-0.29,2.68-0.56,4.02-0.83
				C305.88,217.26,306.13,217.24,306.24,217.23z"/>
			<path class="st1" d="M313.27,215.73c-0.15,0.81-0.36,1.57-0.41,2.33c-0.07,1.18-0.44,1.72-1.57,1.96
				c-1.48,0.31-2.95,0.63-4.26,0.91c0.04-0.74,0.1-1.61,0.13-2.47c0.05-1.12,0.4-1.58,1.48-1.81c1.34-0.29,2.68-0.56,4.02-0.83
				C312.91,215.76,313.17,215.75,313.27,215.73z"/>
			<path class="st1" d="M369.55,203.77c-0.15,0.81-0.36,1.57-0.41,2.33c-0.07,1.18-0.44,1.72-1.57,1.96
				c-1.48,0.31-2.95,0.63-4.26,0.91c0.04-0.74,0.1-1.61,0.13-2.47c0.05-1.12,0.4-1.58,1.48-1.81c1.34-0.29,2.68-0.56,4.02-0.83
				C369.19,203.8,369.44,203.78,369.55,203.77z"/>
			<path class="st1" d="M362.51,205.27c-0.15,0.81-0.36,1.57-0.41,2.33c-0.07,1.18-0.44,1.72-1.57,1.96
				c-1.48,0.31-2.95,0.63-4.26,0.91c0.04-0.74,0.1-1.61,0.13-2.47c0.05-1.12,0.4-1.58,1.48-1.81c1.34-0.29,2.68-0.56,4.02-0.83
				C362.16,205.29,362.41,205.28,362.51,205.27z"/>
			<path class="st1" d="M320.31,214.24c-0.15,0.81-0.36,1.57-0.41,2.33c-0.07,1.18-0.44,1.72-1.57,1.96
				c-1.48,0.31-2.95,0.63-4.26,0.91c0.04-0.74,0.1-1.61,0.13-2.47c0.05-1.12,0.4-1.58,1.48-1.81c1.34-0.29,2.68-0.56,4.02-0.83
				C319.95,214.27,320.2,214.25,320.31,214.24z"/>
			<path class="st1" d="M355.48,206.76c-0.15,0.81-0.36,1.57-0.41,2.33c-0.07,1.18-0.44,1.72-1.57,1.96
				c-1.48,0.31-2.95,0.63-4.26,0.91c0.04-0.74,0.1-1.61,0.13-2.47c0.05-1.12,0.4-1.58,1.48-1.81c1.34-0.29,2.68-0.56,4.02-0.83
				C355.12,206.79,355.37,206.77,355.48,206.76z"/>
			<path class="st1" d="M348.44,208.26c-0.15,0.81-0.36,1.57-0.41,2.33c-0.07,1.18-0.44,1.72-1.57,1.96
				c-1.48,0.31-2.95,0.63-4.26,0.91c0.04-0.74,0.1-1.61,0.13-2.47c0.05-1.12,0.4-1.58,1.48-1.81c1.34-0.29,2.68-0.56,4.02-0.83
				C348.09,208.28,348.34,208.27,348.44,208.26z"/>
			<path class="st1" d="M341.41,209.75c-0.15,0.81-0.36,1.57-0.41,2.33c-0.07,1.18-0.44,1.72-1.57,1.96
				c-1.48,0.31-2.95,0.63-4.26,0.91c0.04-0.74,0.1-1.61,0.13-2.47c0.05-1.12,0.4-1.58,1.48-1.81c1.34-0.29,2.68-0.56,4.02-0.83
				C341.05,209.78,341.3,209.76,341.41,209.75z"/>
			<path class="st1" d="M334.37,211.25c-0.15,0.81-0.36,1.57-0.41,2.33c-0.07,1.18-0.44,1.72-1.57,1.96
				c-1.48,0.31-2.95,0.63-4.26,0.91c0.04-0.74,0.1-1.61,0.13-2.47c0.05-1.12,0.4-1.58,1.48-1.81c1.34-0.29,2.68-0.56,4.02-0.83
				C334.02,211.28,334.27,211.26,334.37,211.25z"/>
			<path class="st1" d="M235.92,232.29c-0.15,0.81-0.36,1.57-0.41,2.33c-0.07,1.18-0.44,1.72-1.57,1.96
				c-1.48,0.31-2.95,0.63-4.26,0.91c0.04-0.74,0.1-1.61,0.13-2.47c0.05-1.12,0.4-1.58,1.48-1.81c1.34-0.29,2.68-0.56,4.02-0.83
				C235.56,232.32,235.81,232.3,235.92,232.29z"/>
			<path class="st1" d="M299.2,218.72c-0.15,0.81-0.36,1.57-0.41,2.33c-0.07,1.18-0.44,1.72-1.57,1.96
				c-1.48,0.31-2.95,0.63-4.26,0.91c0.04-0.74,0.1-1.61,0.13-2.47c0.05-1.12,0.4-1.58,1.48-1.81c1.34-0.29,2.68-0.56,4.02-0.83
				C298.85,218.75,299.1,218.74,299.2,218.72z"/>
			<path class="st1" d="M292.17,220.22c-0.15,0.81-0.36,1.57-0.41,2.33c-0.07,1.18-0.44,1.72-1.57,1.96
				c-1.48,0.31-2.95,0.63-4.26,0.91c0.04-0.74,0.1-1.61,0.13-2.47c0.05-1.12,0.4-1.58,1.48-1.81c1.34-0.29,2.68-0.56,4.02-0.83
				C291.81,220.25,292.06,220.23,292.17,220.22z"/>
			<path class="st1" d="M285.13,221.71c-0.15,0.81-0.36,1.57-0.41,2.33c-0.07,1.18-0.44,1.72-1.57,1.96
				c-1.48,0.31-2.95,0.63-4.26,0.91c0.04-0.74,0.1-1.61,0.13-2.47c0.05-1.12,0.4-1.58,1.48-1.81c1.34-0.29,2.68-0.56,4.02-0.83
				C284.78,221.74,285.03,221.73,285.13,221.71z"/>
			<path class="st1" d="M214.79,236.66c-0.15,0.81-0.36,1.57-0.41,2.33c-0.07,1.18-0.44,1.72-1.57,1.96
				c-1.48,0.31-2.95,0.63-4.26,0.91c0.04-0.74,0.1-1.61,0.13-2.47c0.05-1.12,0.4-1.58,1.48-1.81c1.34-0.29,2.68-0.56,4.02-0.83
				C214.43,236.69,214.68,236.68,214.79,236.66z"/>
			<path class="st1" d="M221.82,235.17c-0.15,0.81-0.36,1.57-0.41,2.33c-0.07,1.18-0.44,1.72-1.57,1.96
				c-1.48,0.31-2.95,0.63-4.26,0.91c0.04-0.74,0.1-1.61,0.13-2.47c0.05-1.12,0.4-1.58,1.48-1.81c1.34-0.29,2.68-0.56,4.02-0.83
				C221.47,235.2,221.72,235.18,221.82,235.17z"/>
			<path class="st1" d="M278.1,223.21c-0.15,0.81-0.36,1.57-0.41,2.33c-0.07,1.18-0.44,1.72-1.57,1.96
				c-1.48,0.31-2.95,0.63-4.26,0.91c0.04-0.74,0.1-1.61,0.13-2.47c0.05-1.12,0.4-1.58,1.48-1.81c1.34-0.29,2.68-0.56,4.02-0.83
				C277.74,223.24,277.99,223.22,278.1,223.21z"/>
			<path class="st1" d="M271.07,224.7c-0.15,0.81-0.36,1.57-0.41,2.33c-0.07,1.18-0.44,1.72-1.57,1.96
				c-1.48,0.31-2.95,0.63-4.26,0.91c0.04-0.74,0.1-1.61,0.13-2.47c0.05-1.12,0.4-1.58,1.48-1.81c1.34-0.29,2.68-0.56,4.02-0.83
				C270.71,224.73,270.96,224.72,271.07,224.7z"/>
			<path class="st1" d="M228.86,233.67c-0.15,0.81-0.36,1.57-0.41,2.33c-0.07,1.18-0.44,1.72-1.57,1.96
				c-1.48,0.31-2.95,0.63-4.26,0.91c0.04-0.74,0.1-1.61,0.13-2.47c0.05-1.12,0.4-1.58,1.48-1.81c1.34-0.29,2.68-0.56,4.02-0.83
				C228.5,233.7,228.75,233.69,228.86,233.67z"/>
			<path class="st1" d="M264.03,226.2c-0.15,0.81-0.36,1.57-0.41,2.33c-0.07,1.18-0.44,1.72-1.57,1.96
				c-1.48,0.31-2.95,0.63-4.26,0.91c0.04-0.74,0.1-1.61,0.13-2.47c0.05-1.12,0.4-1.58,1.48-1.81c1.34-0.29,2.68-0.56,4.02-0.83
				C263.67,226.23,263.93,226.21,264.03,226.2z"/>
			<path class="st1" d="M257,227.69c-0.15,0.81-0.36,1.57-0.41,2.33c-0.07,1.18-0.44,1.72-1.57,1.96c-1.48,0.31-2.95,0.63-4.26,0.91
				c0.04-0.74,0.1-1.61,0.13-2.47c0.05-1.12,0.4-1.58,1.48-1.81c1.34-0.29,2.68-0.56,4.02-0.83
				C256.64,227.72,256.89,227.71,257,227.69z"/>
			<path class="st1" d="M249.96,229.19c-0.15,0.81-0.36,1.57-0.41,2.33c-0.07,1.18-0.44,1.72-1.57,1.96
				c-1.48,0.31-2.95,0.63-4.26,0.91c0.04-0.74,0.1-1.61,0.13-2.47c0.05-1.12,0.4-1.58,1.48-1.81c1.34-0.29,2.68-0.56,4.02-0.83
				C249.61,229.22,249.86,229.2,249.96,229.19z"/>
			<path class="st1" d="M242.93,230.68c-0.15,0.81-0.36,1.57-0.41,2.33c-0.07,1.18-0.44,1.72-1.57,1.96
				c-1.48,0.31-2.95,0.63-4.26,0.91c0.04-0.74,0.1-1.61,0.13-2.47c0.05-1.12,0.4-1.58,1.48-1.81c1.34-0.29,2.68-0.56,4.02-0.83
				C242.57,230.71,242.82,230.7,242.93,230.68z"/>
			<g>
				<path class="st1" d="M144.36,251.85c-0.15,0.81-0.36,1.57-0.41,2.33c-0.07,1.18-0.44,1.72-1.57,1.96
					c-1.48,0.31-2.95,0.63-4.26,0.91c0.04-0.74,0.1-1.61,0.13-2.47c0.05-1.12,0.4-1.58,1.48-1.81c1.34-0.29,2.68-0.56,4.02-0.83
					C144.01,251.88,144.26,251.86,144.36,251.85z"/>
				<path class="st1" d="M207.65,238.28c-0.15,0.81-0.36,1.57-0.41,2.33c-0.07,1.18-0.44,1.72-1.57,1.96
					c-1.48,0.31-2.95,0.63-4.26,0.91c0.04-0.74,0.1-1.61,0.13-2.47c0.05-1.12,0.4-1.58,1.48-1.81c1.34-0.29,2.68-0.56,4.02-0.83
					C207.29,238.31,207.54,238.3,207.65,238.28z"/>
				<path class="st1" d="M200.61,239.78c-0.15,0.81-0.36,1.57-0.41,2.33c-0.07,1.18-0.44,1.72-1.57,1.96
					c-1.48,0.31-2.95,0.63-4.26,0.91c0.04-0.74,0.1-1.61,0.13-2.47c0.05-1.12,0.4-1.58,1.48-1.81c1.34-0.29,2.68-0.56,4.02-0.83
					C200.26,239.81,200.51,239.79,200.61,239.78z"/>
				<path class="st1" d="M193.58,241.28c-0.15,0.81-0.36,1.57-0.41,2.33c-0.07,1.18-0.44,1.72-1.57,1.96
					c-1.48,0.31-2.95,0.63-4.26,0.91c0.04-0.74,0.1-1.61,0.13-2.47c0.05-1.12,0.4-1.58,1.48-1.81c1.34-0.29,2.68-0.56,4.02-0.83
					C193.22,241.3,193.47,241.29,193.58,241.28z"/>
				<path class="st1" d="M123.24,256.23c-0.15,0.81-0.36,1.57-0.41,2.33c-0.07,1.18-0.44,1.72-1.57,1.96
					c-1.48,0.31-2.95,0.63-4.26,0.91c0.04-0.74,0.1-1.61,0.13-2.47c0.05-1.12,0.4-1.58,1.48-1.81c1.34-0.29,2.68-0.56,4.02-0.83
					C122.88,256.26,123.13,256.24,123.24,256.23z"/>
				<path class="st1" d="M130.27,254.73c-0.15,0.81-0.36,1.57-0.41,2.33c-0.07,1.18-0.44,1.72-1.57,1.96
					c-1.48,0.31-2.95,0.63-4.26,0.91c0.04-0.74,0.1-1.61,0.13-2.47c0.05-1.12,0.4-1.58,1.48-1.81c1.34-0.29,2.68-0.56,4.02-0.83
					C129.91,254.76,130.17,254.75,130.27,254.73z"/>
				<path class="st1" d="M186.55,242.77c-0.15,0.81-0.36,1.57-0.41,2.33c-0.07,1.18-0.44,1.72-1.57,1.96
					c-1.48,0.31-2.95,0.63-4.26,0.91c0.04-0.74,0.1-1.61,0.13-2.47c0.05-1.12,0.4-1.58,1.48-1.81c1.34-0.29,2.68-0.56,4.02-0.83
					C186.19,242.8,186.44,242.78,186.55,242.77z"/>
				<path class="st1" d="M179.51,244.27c-0.15,0.81-0.36,1.57-0.41,2.33c-0.07,1.18-0.44,1.72-1.57,1.96
					c-1.48,0.31-2.95,0.63-4.26,0.91c0.04-0.74,0.1-1.61,0.13-2.47c0.05-1.12,0.4-1.58,1.48-1.81c1.34-0.29,2.68-0.56,4.02-0.83
					C179.16,244.29,179.41,244.28,179.51,244.27z"/>
				<path class="st1" d="M137.31,253.24c-0.15,0.81-0.36,1.57-0.41,2.33c-0.07,1.18-0.44,1.72-1.57,1.96
					c-1.48,0.31-2.95,0.63-4.26,0.91c0.04-0.74,0.1-1.61,0.13-2.47c0.05-1.12,0.4-1.58,1.48-1.81c1.34-0.29,2.68-0.56,4.02-0.83
					C136.95,253.27,137.2,253.25,137.31,253.24z"/>
				<path class="st1" d="M172.48,245.76c-0.15,0.81-0.36,1.57-0.41,2.33c-0.07,1.18-0.44,1.72-1.57,1.96
					c-1.48,0.31-2.95,0.63-4.26,0.91c0.04-0.74,0.1-1.61,0.13-2.47c0.05-1.12,0.4-1.58,1.48-1.81c1.34-0.29,2.68-0.56,4.02-0.83
					C172.12,245.79,172.37,245.77,172.48,245.76z"/>
				<path class="st1" d="M165.44,247.26c-0.15,0.81-0.36,1.57-0.41,2.33c-0.07,1.18-0.44,1.72-1.57,1.96
					c-1.48,0.31-2.95,0.63-4.26,0.91c0.04-0.74,0.1-1.61,0.13-2.47c0.05-1.12,0.4-1.58,1.48-1.81c1.34-0.29,2.68-0.56,4.02-0.83
					C165.09,247.28,165.34,247.27,165.44,247.26z"/>
				<path class="st1" d="M158.41,248.75c-0.15,0.81-0.36,1.57-0.41,2.33c-0.07,1.18-0.44,1.72-1.57,1.96
					c-1.48,0.31-2.95,0.63-4.26,0.91c0.04-0.74,0.1-1.61,0.13-2.47c0.05-1.12,0.4-1.58,1.48-1.81c1.34-0.29,2.68-0.56,4.02-0.83
					C158.05,248.78,158.3,248.76,158.41,248.75z"/>
				<path class="st1" d="M151.37,250.25c-0.15,0.81-0.36,1.57-0.41,2.33c-0.07,1.18-0.44,1.72-1.57,1.96
					c-1.48,0.31-2.95,0.63-4.26,0.91c0.04-0.74,0.1-1.61,0.13-2.47c0.05-1.12,0.4-1.58,1.48-1.81c1.34-0.29,2.68-0.56,4.02-0.83
					C151.02,250.28,151.27,250.26,151.37,250.25z"/>
				<path class="st1" d="M52.92,271.29c-0.15,0.81-0.36,1.57-0.41,2.33c-0.07,1.18-0.44,1.72-1.57,1.96
					c-1.48,0.31-2.95,0.63-4.26,0.91c0.04-0.74,0.1-1.61,0.13-2.47c0.05-1.12,0.4-1.58,1.48-1.81c1.34-0.29,2.68-0.56,4.02-0.83
					C52.56,271.32,52.81,271.3,52.92,271.29z"/>
				<path class="st1" d="M116.2,257.72c-0.15,0.81-0.36,1.57-0.41,2.33c-0.07,1.18-0.44,1.72-1.57,1.96
					c-1.48,0.31-2.95,0.63-4.26,0.91c0.04-0.74,0.1-1.61,0.13-2.47c0.05-1.12,0.4-1.58,1.48-1.81c1.34-0.29,2.68-0.56,4.02-0.83
					C115.85,257.75,116.1,257.74,116.2,257.72z"/>
				<path class="st1" d="M109.17,259.22c-0.15,0.81-0.36,1.57-0.41,2.33c-0.07,1.18-0.44,1.72-1.57,1.96
					c-1.48,0.31-2.95,0.63-4.26,0.91c0.04-0.74,0.1-1.61,0.13-2.47c0.05-1.12,0.4-1.58,1.48-1.81c1.34-0.29,2.68-0.56,4.02-0.83
					C108.81,259.25,109.06,259.23,109.17,259.22z"/>
				<path class="st1" d="M102.13,260.71c-0.15,0.81-0.36,1.57-0.41,2.33c-0.07,1.18-0.44,1.72-1.57,1.96
					c-1.48,0.31-2.95,0.63-4.26,0.91c0.04-0.74,0.1-1.61,0.13-2.47c0.05-1.12,0.4-1.58,1.48-1.81c1.34-0.29,2.68-0.56,4.02-0.83
					C101.78,260.74,102.03,260.73,102.13,260.71z"/>
				<path class="st1" d="M34.74,274.96c1.16-0.25,2.32-0.48,3.48-0.72c0.24-0.05,0.49-0.07,0.6-0.08c-0.15,0.81-0.36,1.57-0.41,2.33
					c-0.07,1.18-0.44,1.72-1.57,1.96c-0.17,0.04-0.33,0.07-0.5,0.11"/>
				<path class="st1" d="M95.1,262.21c-0.15,0.81-0.36,1.57-0.41,2.33c-0.07,1.18-0.44,1.72-1.57,1.96
					c-1.48,0.31-2.95,0.63-4.26,0.91c0.04-0.74,0.1-1.61,0.13-2.47c0.05-1.12,0.4-1.58,1.48-1.81c1.34-0.29,2.68-0.56,4.02-0.83
					C94.74,262.24,94.99,262.22,95.1,262.21z"/>
				<path class="st1" d="M88.07,263.7c-0.15,0.81-0.36,1.57-0.41,2.33c-0.07,1.18-0.44,1.72-1.57,1.96
					c-1.48,0.31-2.95,0.63-4.26,0.91c0.04-0.74,0.1-1.61,0.13-2.47c0.05-1.12,0.4-1.58,1.48-1.81c1.34-0.29,2.68-0.56,4.02-0.83
					C87.71,263.73,87.96,263.72,88.07,263.7z"/>
				<path class="st1" d="M45.86,272.67c-0.15,0.81-0.36,1.57-0.41,2.33c-0.07,1.18-0.44,1.72-1.57,1.96
					c-1.48,0.31-2.95,0.63-4.26,0.91c0.04-0.74,0.1-1.61,0.13-2.47c0.05-1.12,0.4-1.58,1.48-1.81c1.34-0.29,2.68-0.56,4.02-0.83
					C45.5,272.7,45.75,272.69,45.86,272.67z"/>
				<path class="st1" d="M81.03,265.2c-0.15,0.81-0.36,1.57-0.41,2.33c-0.07,1.18-0.44,1.72-1.57,1.96
					c-1.48,0.31-2.95,0.63-4.26,0.91c0.04-0.74,0.1-1.61,0.13-2.47c0.05-1.12,0.4-1.58,1.48-1.81c1.34-0.29,2.68-0.56,4.02-0.83
					C80.67,265.23,80.93,265.21,81.03,265.2z"/>
				<path class="st1" d="M74,266.69c-0.15,0.81-0.36,1.57-0.41,2.33c-0.07,1.18-0.44,1.72-1.57,1.96c-1.48,0.31-2.95,0.63-4.26,0.91
					c0.04-0.74,0.1-1.61,0.13-2.47c0.05-1.12,0.4-1.58,1.48-1.81c1.34-0.29,2.68-0.56,4.02-0.83
					C73.64,266.72,73.89,266.71,74,266.69z"/>
				<path class="st1" d="M66.96,268.19c-0.15,0.81-0.36,1.57-0.41,2.33c-0.07,1.18-0.44,1.72-1.57,1.96
					c-1.48,0.31-2.95,0.63-4.26,0.91c0.04-0.74,0.1-1.61,0.13-2.47c0.05-1.12,0.4-1.58,1.48-1.81c1.34-0.29,2.68-0.56,4.02-0.83
					C66.61,268.22,66.86,268.2,66.96,268.19z"/>
				<path class="st1" d="M59.93,269.68c-0.15,0.81-0.36,1.57-0.41,2.33c-0.07,1.18-0.44,1.72-1.57,1.96
					c-1.48,0.31-2.95,0.63-4.26,0.91c0.04-0.74,0.1-1.61,0.13-2.47c0.05-1.12,0.4-1.58,1.48-1.81c1.34-0.29,2.68-0.56,4.02-0.83
					C59.57,269.71,59.82,269.7,59.93,269.68z"/>
			</g>
		</g>
	</g>
	<g>
		<g>
			<path class="st1" d="M139.36,206.85c-0.15,0.81-0.36,1.57-0.41,2.33c-0.07,1.18-0.44,1.72-1.57,1.96
				c-1.48,0.31-2.95,0.63-4.26,0.91c0.04-0.74,0.1-1.61,0.13-2.47c0.05-1.12,0.4-1.58,1.48-1.81c1.34-0.29,2.68-0.56,4.02-0.83
				C139.01,206.88,139.26,206.86,139.36,206.85z"/>
			<path class="st1" d="M202.65,193.28c-0.15,0.81-0.36,1.57-0.41,2.33c-0.07,1.18-0.44,1.72-1.57,1.96
				c-1.48,0.31-2.95,0.63-4.26,0.91c0.04-0.74,0.1-1.61,0.13-2.47c0.05-1.12,0.4-1.58,1.48-1.81c1.34-0.29,2.68-0.56,4.02-0.83
				C202.29,193.31,202.54,193.3,202.65,193.28z"/>
			<path class="st1" d="M195.61,194.78c-0.15,0.81-0.36,1.57-0.41,2.33c-0.07,1.18-0.44,1.72-1.57,1.96
				c-1.48,0.31-2.95,0.63-4.26,0.91c0.04-0.74,0.1-1.61,0.13-2.47c0.05-1.12,0.4-1.58,1.48-1.81c1.34-0.29,2.68-0.56,4.02-0.83
				C195.26,194.81,195.51,194.79,195.61,194.78z"/>
			<path class="st1" d="M188.58,196.28c-0.15,0.81-0.36,1.57-0.41,2.33c-0.07,1.18-0.44,1.72-1.57,1.96
				c-1.48,0.31-2.95,0.63-4.26,0.91c0.04-0.74,0.1-1.61,0.13-2.47c0.05-1.12,0.4-1.58,1.48-1.81c1.34-0.29,2.68-0.56,4.02-0.83
				C188.22,196.3,188.47,196.29,188.58,196.28z"/>
			<path class="st1" d="M118.24,211.23c-0.15,0.81-0.36,1.57-0.41,2.33c-0.07,1.18-0.44,1.72-1.57,1.96
				c-1.48,0.31-2.95,0.63-4.26,0.91c0.04-0.74,0.1-1.61,0.13-2.47c0.05-1.12,0.4-1.58,1.48-1.81c1.34-0.29,2.68-0.56,4.02-0.83
				C117.88,211.26,118.13,211.24,118.24,211.23z"/>
			<path class="st1" d="M125.27,209.73c-0.15,0.81-0.36,1.57-0.41,2.33c-0.07,1.18-0.44,1.72-1.57,1.96
				c-1.48,0.31-2.95,0.63-4.26,0.91c0.04-0.74,0.1-1.61,0.13-2.47c0.05-1.12,0.4-1.58,1.48-1.81c1.34-0.29,2.68-0.56,4.02-0.83
				C124.91,209.76,125.17,209.75,125.27,209.73z"/>
			<path class="st1" d="M181.55,197.77c-0.15,0.81-0.36,1.57-0.41,2.33c-0.07,1.18-0.44,1.72-1.57,1.96
				c-1.48,0.31-2.95,0.63-4.26,0.91c0.04-0.74,0.1-1.61,0.13-2.47c0.05-1.12,0.4-1.58,1.48-1.81c1.34-0.29,2.68-0.56,4.02-0.83
				C181.19,197.8,181.44,197.78,181.55,197.77z"/>
			<path class="st1" d="M174.51,199.27c-0.15,0.81-0.36,1.57-0.41,2.33c-0.07,1.18-0.44,1.72-1.57,1.96
				c-1.48,0.31-2.95,0.63-4.26,0.91c0.04-0.74,0.1-1.61,0.13-2.47c0.05-1.12,0.4-1.58,1.48-1.81c1.34-0.29,2.68-0.56,4.02-0.83
				C174.16,199.29,174.41,199.28,174.51,199.27z"/>
			<path class="st1" d="M132.31,208.24c-0.15,0.81-0.36,1.57-0.41,2.33c-0.07,1.18-0.44,1.72-1.57,1.96
				c-1.48,0.31-2.95,0.63-4.26,0.91c0.04-0.74,0.1-1.61,0.13-2.47c0.05-1.12,0.4-1.58,1.48-1.81c1.34-0.29,2.68-0.56,4.02-0.83
				C131.95,208.27,132.2,208.25,132.31,208.24z"/>
			<path class="st1" d="M167.48,200.76c-0.15,0.81-0.36,1.57-0.41,2.33c-0.07,1.18-0.44,1.72-1.57,1.96
				c-1.48,0.31-2.95,0.63-4.26,0.91c0.04-0.74,0.1-1.61,0.13-2.47c0.05-1.12,0.4-1.58,1.48-1.81c1.34-0.29,2.68-0.56,4.02-0.83
				C167.12,200.79,167.37,200.77,167.48,200.76z"/>
			<path class="st1" d="M160.44,202.26c-0.15,0.81-0.36,1.57-0.41,2.33c-0.07,1.18-0.44,1.72-1.57,1.96
				c-1.48,0.31-2.95,0.63-4.26,0.91c0.04-0.74,0.1-1.61,0.13-2.47c0.05-1.12,0.4-1.58,1.48-1.81c1.34-0.29,2.68-0.56,4.02-0.83
				C160.09,202.28,160.34,202.27,160.44,202.26z"/>
			<path class="st1" d="M153.41,203.75c-0.15,0.81-0.36,1.57-0.41,2.33c-0.07,1.18-0.44,1.72-1.57,1.96
				c-1.48,0.31-2.95,0.63-4.26,0.91c0.04-0.74,0.1-1.61,0.13-2.47c0.05-1.12,0.4-1.58,1.48-1.81c1.34-0.29,2.68-0.56,4.02-0.83
				C153.05,203.78,153.3,203.76,153.41,203.75z"/>
			<path class="st1" d="M146.37,205.25c-0.15,0.81-0.36,1.57-0.41,2.33c-0.07,1.18-0.44,1.72-1.57,1.96
				c-1.48,0.31-2.95,0.63-4.26,0.91c0.04-0.74,0.1-1.61,0.13-2.47c0.05-1.12,0.4-1.58,1.48-1.81c1.34-0.29,2.68-0.56,4.02-0.83
				C146.02,205.28,146.27,205.26,146.37,205.25z"/>
			<path class="st1" d="M47.92,226.29c-0.15,0.81-0.36,1.57-0.41,2.33c-0.07,1.18-0.44,1.72-1.57,1.96
				c-1.48,0.31-2.95,0.63-4.26,0.91c0.04-0.74,0.1-1.61,0.13-2.47c0.05-1.12,0.4-1.58,1.48-1.81c1.34-0.29,2.68-0.56,4.02-0.83
				C47.56,226.32,47.81,226.3,47.92,226.29z"/>
			<path class="st1" d="M111.2,212.72c-0.15,0.81-0.36,1.57-0.41,2.33c-0.07,1.18-0.44,1.72-1.57,1.96
				c-1.48,0.31-2.95,0.63-4.26,0.91c0.04-0.74,0.1-1.61,0.13-2.47c0.05-1.12,0.4-1.58,1.48-1.81c1.34-0.29,2.68-0.56,4.02-0.83
				C110.85,212.75,111.1,212.74,111.2,212.72z"/>
			<path class="st1" d="M104.17,214.22c-0.15,0.81-0.36,1.57-0.41,2.33c-0.07,1.18-0.44,1.72-1.57,1.96
				c-1.48,0.31-2.95,0.63-4.26,0.91c0.04-0.74,0.1-1.61,0.13-2.47c0.05-1.12,0.4-1.58,1.48-1.81c1.34-0.29,2.68-0.56,4.02-0.83
				C103.81,214.25,104.06,214.23,104.17,214.22z"/>
			<path class="st1" d="M97.13,215.71c-0.15,0.81-0.36,1.57-0.41,2.33c-0.07,1.18-0.44,1.72-1.57,1.96
				c-1.48,0.31-2.95,0.63-4.26,0.91c0.04-0.74,0.1-1.61,0.13-2.47c0.05-1.12,0.4-1.58,1.48-1.81c1.34-0.29,2.68-0.56,4.02-0.83
				C96.78,215.74,97.03,215.73,97.13,215.71z"/>
			<path class="st1" d="M21.49,231.8c0.19-0.09,0.41-0.17,0.68-0.22c1.34-0.29,2.68-0.56,4.02-0.83c0.24-0.05,0.49-0.06,0.6-0.08
				c-0.15,0.81-0.36,1.57-0.41,2.33c-0.07,1.18-0.44,1.72-1.57,1.96c-0.87,0.18-1.74,0.37-2.57,0.55"/>
			<path class="st1" d="M33.82,229.17c-0.15,0.81-0.36,1.57-0.41,2.33c-0.07,1.18-0.44,1.72-1.57,1.96
				c-1.48,0.31-2.95,0.63-4.26,0.91c0.04-0.74,0.1-1.61,0.13-2.47c0.05-1.12,0.4-1.58,1.48-1.81c1.34-0.29,2.68-0.56,4.02-0.83
				C33.47,229.2,33.72,229.18,33.82,229.17z"/>
			<path class="st1" d="M90.1,217.21c-0.15,0.81-0.36,1.57-0.41,2.33c-0.07,1.18-0.44,1.72-1.57,1.96
				c-1.48,0.31-2.95,0.63-4.26,0.91c0.04-0.74,0.1-1.61,0.13-2.47c0.05-1.12,0.4-1.58,1.48-1.81c1.34-0.29,2.68-0.56,4.02-0.83
				C89.74,217.24,89.99,217.22,90.1,217.21z"/>
			<path class="st1" d="M83.07,218.7c-0.15,0.81-0.36,1.57-0.41,2.33c-0.07,1.18-0.44,1.72-1.57,1.96
				c-1.48,0.31-2.95,0.63-4.26,0.91c0.04-0.74,0.1-1.61,0.13-2.47c0.05-1.12,0.4-1.58,1.48-1.81c1.34-0.29,2.68-0.56,4.02-0.83
				C82.71,218.73,82.96,218.72,83.07,218.7z"/>
			<path class="st1" d="M40.86,227.67c-0.15,0.81-0.36,1.57-0.41,2.33c-0.07,1.18-0.44,1.72-1.57,1.96
				c-1.48,0.31-2.95,0.63-4.26,0.91c0.04-0.74,0.1-1.61,0.13-2.47c0.05-1.12,0.4-1.58,1.48-1.81c1.34-0.29,2.68-0.56,4.02-0.83
				C40.5,227.7,40.75,227.69,40.86,227.67z"/>
			<path class="st1" d="M76.03,220.2c-0.15,0.81-0.36,1.57-0.41,2.33c-0.07,1.18-0.44,1.72-1.57,1.96
				c-1.48,0.31-2.95,0.63-4.26,0.91c0.04-0.74,0.1-1.61,0.13-2.47c0.05-1.12,0.4-1.58,1.48-1.81c1.34-0.29,2.68-0.56,4.02-0.83
				C75.67,220.23,75.93,220.21,76.03,220.2z"/>
			<path class="st1" d="M69,221.69c-0.15,0.81-0.36,1.57-0.41,2.33c-0.07,1.18-0.44,1.72-1.57,1.96c-1.48,0.31-2.95,0.63-4.26,0.91
				c0.04-0.74,0.1-1.61,0.13-2.47c0.05-1.12,0.4-1.58,1.48-1.81c1.34-0.29,2.68-0.56,4.02-0.83C68.64,221.72,68.89,221.71,69,221.69
				z"/>
			<path class="st1" d="M61.96,223.19c-0.15,0.81-0.36,1.57-0.41,2.33c-0.07,1.18-0.44,1.72-1.57,1.96
				c-1.48,0.31-2.95,0.63-4.26,0.91c0.04-0.74,0.1-1.61,0.13-2.47c0.05-1.12,0.4-1.58,1.48-1.81c1.34-0.29,2.68-0.56,4.02-0.83
				C61.61,223.22,61.86,223.2,61.96,223.19z"/>
			<path class="st1" d="M54.93,224.68c-0.15,0.81-0.36,1.57-0.41,2.33c-0.07,1.18-0.44,1.72-1.57,1.96
				c-1.48,0.31-2.95,0.63-4.26,0.91c0.04-0.74,0.1-1.61,0.13-2.47c0.05-1.12,0.4-1.58,1.48-1.81c1.34-0.29,2.68-0.56,4.02-0.83
				C54.57,224.71,54.82,224.7,54.93,224.68z"/>
		</g>
		<g>
			<path class="st1" d="M322.36,167.85c-0.15,0.81-0.36,1.57-0.41,2.33c-0.07,1.18-0.44,1.72-1.57,1.96
				c-1.48,0.31-2.95,0.63-4.26,0.91c0.04-0.74,0.1-1.61,0.13-2.47c0.05-1.12,0.4-1.58,1.48-1.81c1.34-0.29,2.68-0.56,4.02-0.83
				C322.01,167.88,322.26,167.86,322.36,167.85z"/>
			<path class="st1" d="M378.14,158.69c-0.16,0.79-0.58,1.18-1.5,1.38c-1.48,0.31-2.95,0.63-4.26,0.91c0.04-0.74,0.1-1.61,0.13-2.47
				c0.05-1.12,0.4-1.58,1.48-1.81c0.75-0.16,1.5-0.32,2.25-0.47"/>
			<path class="st1" d="M371.58,157.28c-0.15,0.81-0.36,1.57-0.41,2.33c-0.07,1.18-0.44,1.72-1.57,1.96
				c-1.48,0.31-2.95,0.63-4.26,0.91c0.04-0.74,0.1-1.61,0.13-2.47c0.05-1.12,0.4-1.58,1.48-1.81c1.34-0.29,2.68-0.56,4.02-0.83
				C371.22,157.3,371.47,157.29,371.58,157.28z"/>
			<path class="st1" d="M301.24,172.23c-0.15,0.81-0.36,1.57-0.41,2.33c-0.07,1.18-0.44,1.72-1.57,1.96
				c-1.48,0.31-2.95,0.63-4.26,0.91c0.04-0.74,0.1-1.61,0.13-2.47c0.05-1.12,0.4-1.58,1.48-1.81c1.34-0.29,2.68-0.56,4.02-0.83
				C300.88,172.26,301.13,172.24,301.24,172.23z"/>
			<path class="st1" d="M308.27,170.73c-0.15,0.81-0.36,1.57-0.41,2.33c-0.07,1.18-0.44,1.72-1.57,1.96
				c-1.48,0.31-2.95,0.63-4.26,0.91c0.04-0.74,0.1-1.61,0.13-2.47c0.05-1.12,0.4-1.58,1.48-1.81c1.34-0.29,2.68-0.56,4.02-0.83
				C307.91,170.76,308.17,170.75,308.27,170.73z"/>
			<path class="st1" d="M364.55,158.77c-0.15,0.81-0.36,1.57-0.41,2.33c-0.07,1.18-0.44,1.72-1.57,1.96
				c-1.48,0.31-2.95,0.63-4.26,0.91c0.04-0.74,0.1-1.61,0.13-2.47c0.05-1.12,0.4-1.58,1.48-1.81c1.34-0.29,2.68-0.56,4.02-0.83
				C364.19,158.8,364.44,158.78,364.55,158.77z"/>
			<path class="st1" d="M357.51,160.27c-0.15,0.81-0.36,1.57-0.41,2.33c-0.07,1.18-0.44,1.72-1.57,1.96
				c-1.48,0.31-2.95,0.63-4.26,0.91c0.04-0.74,0.1-1.61,0.13-2.47c0.05-1.12,0.4-1.58,1.48-1.81c1.34-0.29,2.68-0.56,4.02-0.83
				C357.16,160.29,357.41,160.28,357.51,160.27z"/>
			<path class="st1" d="M315.31,169.24c-0.15,0.81-0.36,1.57-0.41,2.33c-0.07,1.18-0.44,1.72-1.57,1.96
				c-1.48,0.31-2.95,0.63-4.26,0.91c0.04-0.74,0.1-1.61,0.13-2.47c0.05-1.12,0.4-1.58,1.48-1.81c1.34-0.29,2.68-0.56,4.02-0.83
				C314.95,169.27,315.2,169.25,315.31,169.24z"/>
			<path class="st1" d="M350.48,161.76c-0.15,0.81-0.36,1.57-0.41,2.33c-0.07,1.18-0.44,1.72-1.57,1.96
				c-1.48,0.31-2.95,0.63-4.26,0.91c0.04-0.74,0.1-1.61,0.13-2.47c0.05-1.12,0.4-1.58,1.48-1.81c1.34-0.29,2.68-0.56,4.02-0.83
				C350.12,161.79,350.37,161.77,350.48,161.76z"/>
			<path class="st1" d="M343.44,163.26c-0.15,0.81-0.36,1.57-0.41,2.33c-0.07,1.18-0.44,1.72-1.57,1.96
				c-1.48,0.31-2.95,0.63-4.26,0.91c0.04-0.74,0.1-1.61,0.13-2.47c0.05-1.12,0.4-1.58,1.48-1.81c1.34-0.29,2.68-0.56,4.02-0.83
				C343.09,163.28,343.34,163.27,343.44,163.26z"/>
			<path class="st1" d="M336.41,164.75c-0.15,0.81-0.36,1.57-0.41,2.33c-0.07,1.18-0.44,1.72-1.57,1.96
				c-1.48,0.31-2.95,0.63-4.26,0.91c0.04-0.74,0.1-1.61,0.13-2.47c0.05-1.12,0.4-1.58,1.48-1.81c1.34-0.29,2.68-0.56,4.02-0.83
				C336.05,164.78,336.3,164.76,336.41,164.75z"/>
			<path class="st1" d="M329.37,166.25c-0.15,0.81-0.36,1.57-0.41,2.33c-0.07,1.18-0.44,1.72-1.57,1.96
				c-1.48,0.31-2.95,0.63-4.26,0.91c0.04-0.74,0.1-1.61,0.13-2.47c0.05-1.12,0.4-1.58,1.48-1.81c1.34-0.29,2.68-0.56,4.02-0.83
				C329.02,166.28,329.27,166.26,329.37,166.25z"/>
			<path class="st1" d="M230.92,187.29c-0.15,0.81-0.36,1.57-0.41,2.33c-0.07,1.18-0.44,1.72-1.57,1.96
				c-1.48,0.31-2.95,0.63-4.26,0.91c0.04-0.74,0.1-1.61,0.13-2.47c0.05-1.12,0.4-1.58,1.48-1.81c1.34-0.29,2.68-0.56,4.02-0.83
				C230.56,187.32,230.81,187.3,230.92,187.29z"/>
			<path class="st1" d="M294.2,173.72c-0.15,0.81-0.36,1.57-0.41,2.33c-0.07,1.18-0.44,1.72-1.57,1.96
				c-1.48,0.31-2.95,0.63-4.26,0.91c0.04-0.74,0.1-1.61,0.13-2.47c0.05-1.12,0.4-1.58,1.48-1.81c1.34-0.29,2.68-0.56,4.02-0.83
				C293.85,173.75,294.1,173.74,294.2,173.72z"/>
			<path class="st1" d="M287.17,175.22c-0.15,0.81-0.36,1.57-0.41,2.33c-0.07,1.18-0.44,1.72-1.57,1.96
				c-1.48,0.31-2.95,0.63-4.26,0.91c0.04-0.74,0.1-1.61,0.13-2.47c0.05-1.12,0.4-1.58,1.48-1.81c1.34-0.29,2.68-0.56,4.02-0.83
				C286.81,175.25,287.06,175.23,287.17,175.22z"/>
			<path class="st1" d="M280.13,176.71c-0.15,0.81-0.36,1.57-0.41,2.33c-0.07,1.18-0.44,1.72-1.57,1.96
				c-1.48,0.31-2.95,0.63-4.26,0.91c0.04-0.74,0.1-1.61,0.13-2.47c0.05-1.12,0.4-1.58,1.48-1.81c1.34-0.29,2.68-0.56,4.02-0.83
				C279.78,176.74,280.03,176.73,280.13,176.71z"/>
			<path class="st1" d="M209.79,191.66c-0.15,0.81-0.36,1.57-0.41,2.33c-0.07,1.18-0.44,1.72-1.57,1.96
				c-1.48,0.31-2.95,0.63-4.26,0.91c0.04-0.74,0.1-1.61,0.13-2.47c0.05-1.12,0.4-1.58,1.48-1.81c1.34-0.29,2.68-0.56,4.02-0.83
				C209.43,191.69,209.68,191.68,209.79,191.66z"/>
			<path class="st1" d="M216.82,190.17c-0.15,0.81-0.36,1.57-0.41,2.33c-0.07,1.18-0.44,1.72-1.57,1.96
				c-1.48,0.31-2.95,0.63-4.26,0.91c0.04-0.74,0.1-1.61,0.13-2.47c0.05-1.12,0.4-1.58,1.48-1.81c1.34-0.29,2.68-0.56,4.02-0.83
				C216.47,190.2,216.72,190.18,216.82,190.17z"/>
			<path class="st1" d="M273.1,178.21c-0.15,0.81-0.36,1.57-0.41,2.33c-0.07,1.18-0.44,1.72-1.57,1.96
				c-1.48,0.31-2.95,0.63-4.26,0.91c0.04-0.74,0.1-1.61,0.13-2.47c0.05-1.12,0.4-1.58,1.48-1.81c1.34-0.29,2.68-0.56,4.02-0.83
				C272.74,178.24,272.99,178.22,273.1,178.21z"/>
			<path class="st1" d="M266.07,179.7c-0.15,0.81-0.36,1.57-0.41,2.33c-0.07,1.18-0.44,1.72-1.57,1.96
				c-1.48,0.31-2.95,0.63-4.26,0.91c0.04-0.74,0.1-1.61,0.13-2.47c0.05-1.12,0.4-1.58,1.48-1.81c1.34-0.29,2.68-0.56,4.02-0.83
				C265.71,179.73,265.96,179.72,266.07,179.7z"/>
			<path class="st1" d="M223.86,188.67c-0.15,0.81-0.36,1.57-0.41,2.33c-0.07,1.18-0.44,1.72-1.57,1.96
				c-1.48,0.31-2.95,0.63-4.26,0.91c0.04-0.74,0.1-1.61,0.13-2.47c0.05-1.12,0.4-1.58,1.48-1.81c1.34-0.29,2.68-0.56,4.02-0.83
				C223.5,188.7,223.75,188.69,223.86,188.67z"/>
			<path class="st1" d="M259.03,181.2c-0.15,0.81-0.36,1.57-0.41,2.33c-0.07,1.18-0.44,1.72-1.57,1.96
				c-1.48,0.31-2.95,0.63-4.26,0.91c0.04-0.74,0.1-1.61,0.13-2.47c0.05-1.12,0.4-1.58,1.48-1.81c1.34-0.29,2.68-0.56,4.02-0.83
				C258.67,181.23,258.93,181.21,259.03,181.2z"/>
			<path class="st1" d="M252,182.69c-0.15,0.81-0.36,1.57-0.41,2.33c-0.07,1.18-0.44,1.72-1.57,1.96c-1.48,0.31-2.95,0.63-4.26,0.91
				c0.04-0.74,0.1-1.61,0.13-2.47c0.05-1.12,0.4-1.58,1.48-1.81c1.34-0.29,2.68-0.56,4.02-0.83
				C251.64,182.72,251.89,182.71,252,182.69z"/>
			<path class="st1" d="M244.96,184.19c-0.15,0.81-0.36,1.57-0.41,2.33c-0.07,1.18-0.44,1.72-1.57,1.96
				c-1.48,0.31-2.95,0.63-4.26,0.91c0.04-0.74,0.1-1.61,0.13-2.47c0.05-1.12,0.4-1.58,1.48-1.81c1.34-0.29,2.68-0.56,4.02-0.83
				C244.61,184.22,244.86,184.2,244.96,184.19z"/>
			<path class="st1" d="M237.93,185.68c-0.15,0.81-0.36,1.57-0.41,2.33c-0.07,1.18-0.44,1.72-1.57,1.96
				c-1.48,0.31-2.95,0.63-4.26,0.91c0.04-0.74,0.1-1.61,0.13-2.47c0.05-1.12,0.4-1.58,1.48-1.81c1.34-0.29,2.68-0.56,4.02-0.83
				C237.57,185.71,237.82,185.7,237.93,185.68z"/>
		</g>
	</g>
	<path class="st1" d="M394.37,211.92c-2.42-2.44-5.5-3.37-8.74-4.14c-1.65-0.39-2.8-1.46-3.41-2.89c-0.33-0.78-0.51-1.67-0.51-2.61
		c0-0.38,0-0.77,0-1.15c-0.01-2.22-0.01-4.44-0.08-6.65c-0.08-2.59-0.26-5.18-0.22-8.07c2.16,2.81,5.42,2.31,8.19,3.23
		c1.72,0.57,3.2,1.86,4.78,2.83C394.37,198.95,394.37,205.44,394.37,211.92z"/>
	<path class="st1" d="M211.41,372.78c0.16,5.31,3.7,8.3,6.75,11.63c-7.8,8.38-16.8,13.83-28.8,12.01c-0.52-0.08-1.33-0.91-1.32-1.38
		c0.02-1.95,0.15-3.93,0.53-5.84c0.57-2.88,1.97-4.53,5.39-4.94c2.76-0.33,5.54-1.98,7.92-3.61
		C205.16,378.39,208.07,375.58,211.41,372.78z"/>
	<path class="st1" d="M222.26,381.79c-2.93-2.63-6.1-4.98-7.33-8.99c-0.34-1.1-0.13-1.89,0.89-2.48c8.05-4.69,16.5-7.51,25.96-5.36
		c3.6,0.82,6.57,2.68,9.16,5.7c-3.49,1.42-6.79,2.72-10.06,4.09c-2.38,0.99-4.73,1.61-7.4,1.83c-2.78,0.23-5.48,1.88-8.14,3.06
		C224.29,380.11,223.4,380.98,222.26,381.79z"/>
	<path class="st1" d="M182.4,414.08c4-2.8,7.61-5.35,11.26-7.84c0.4-0.27,1.09-0.39,1.56-0.26c7.05,1.95,14.12,3.87,20.12,8.37
		c2.51,1.88,2.77,3.03,0.44,5.19c-2.2,2.04-4.72,3.75-7.18,5.5c-0.43,0.3-1.5,0.32-1.85,0.01c-6.52-6.06-15.08-7.56-23.03-10.41
		C183.41,414.52,183.11,414.38,182.4,414.08z"/>
	<path class="st1" d="M168.3,366.73c-2.14,4-3.01,8.1-2.64,12.5c0.06,0.72-0.64,1.73-1.28,2.24c-4.02,3.23-8.05,6.4-10.46,11.15
		c-0.19,0.37-1.37,0.52-1.97,0.35c-2.64-0.76-4.11-2.85-5.31-5.13c-2.45-4.66-2.35-5.56,1.02-9.54c5.19-6.14,11.75-9.97,19.62-11.56
		C167.53,366.7,167.81,366.73,168.3,366.73z"/>
	<path class="st1" d="M259.72,372.17c-0.52,1.22-1.12,2.42-1.51,3.68c-0.24,0.77-0.4,1.71-0.16,2.44c0.77,2.39,0.15,4.6-0.64,6.8
		c-0.17,0.48-0.58,0.99-1.02,1.24c-6.46,3.62-13.01,7.03-20.26,8.84c-0.52,0.13-1.07,0.17-2.09,0.32c2.58-3.67,2.44-7.57,2.69-11.4
		c0.12-1.91,1-3.15,2.89-3.95c6.6-2.77,13.13-5.71,19.68-8.59C259.44,371.76,259.58,371.96,259.72,372.17z"/>
	<path class="st1" d="M141.97,388.58c1.11,1.99,2.03,3.98,3.27,5.75c1.49,2.12,3.58,3.53,6.14,4.24c0.57,0.16,1.39,0.85,1.42,1.35
		c0.37,5.96,2.88,10.81,7.3,14.74c0.1,0.08,0.12,0.25,0.21,0.43c-1.49,1.95-3.67,2.51-5.93,2.62c-2.1,0.11-4.21-0.16-6.32-0.14
		c-2.14,0.02-3.24-1.12-4.15-2.91c-4.02-7.9-4.88-16.08-2.51-24.61C141.55,389.54,141.79,389.07,141.97,388.58z"/>
	<path class="st1" d="M201.73,375.28c-2.05,1.51-3.6,2.87-5.34,3.89c-2.53,1.49-5.05,1.8-8.19,1.03c-4.57-1.12-9.43-1.21-14.18-1.39
		c-1.59-0.06-2.33-0.3-2.15-1.84c0.48-4.03,2.71-7.25,5.46-9.98c0.79-0.79,2.66-0.59,4.04-0.65c6.3-0.29,11.93,1.67,16.92,5.43
		C199.49,372.68,200.43,373.95,201.73,375.28z"/>
	<path class="st1" d="M208.9,406.35c4.94-7.6,29.01-6.29,36.89,2.23c-5.42-0.33-9.36,2.58-13.35,5.49c-0.73,0.53-1.86,0.76-2.8,0.74
		c-4.22-0.07-7.85-1.43-11.33-4.07C215.61,408.7,212.06,407.77,208.9,406.35z"/>
	<path class="st1" d="M265.72,426.45c-6.4-2.48-10.54,1.29-14.92,4.82c-3.7-5.83-8.36-10.68-14.41-14.06
		c1.54-3.15,6.37-5.41,10.58-5.11c5.62,0.39,9.66,3.56,13.23,7.47C262.18,421.74,263.89,424.15,265.72,426.45z"/>
	<path class="st1" d="M212.44,428.26c3.6-3.16,8.05-5.51,9.9-10.17c3.85,0.27,7.66,0.53,11.42,0.79c2.21,2.85,4.55,5.87,6.94,8.95
		C235.69,434.11,219.42,434.14,212.44,428.26z"/>
	<path class="st1" d="M283.4,362.29c-1.65,2.99-1.17,5.41-0.4,7.87c0.31,0.99,0.41,2.09,0.36,3.13c-0.11,2.05-0.73,3.76-2.96,4.63
		c-5.68,2.22-11.3,4.59-16.73,6.82c0.3-3.62,0.46-7.02,0.91-10.37c0.33-2.42,1.29-4.39,3.99-5.4c4.14-1.56,8.11-3.59,12.15-5.42
		C281.41,363.26,282.07,362.92,283.4,362.29z"/>
	<path class="st1" d="M186.63,385.1c-1.08,3.63-2.23,7.48-3.5,11.76c-7.7-0.31-15.43-2.8-23.43-5.98c2.85-3.11,5.08-6.28,8.71-7.93
		c0.59-0.27,1.36-0.35,2.01-0.26C175.92,383.47,181.4,384.32,186.63,385.1z"/>
	<path class="st1" d="M245.8,404.77c1.97-2.79,2.94-5.7,1.44-9.11c4.66-2.14,9.18-4.2,13.7-6.27c3.31,7.04,2.82,16.86-2.23,21.8
		C254.44,409.08,250.2,406.96,245.8,404.77z"/>
	<path class="st1" d="M36.63,122.3c-1.72-1.8-3.46-3.62-5.2-5.43c-0.63-0.66-1.39-1.22-1.9-1.96c-1.2-1.75-1.81-3.54-0.52-5.65
		c2.68-4.37,5.21-8.84,7.81-13.26c0.27-0.46,0.64-0.87,1.23-1.66c0.33,3.47,2.43,5.4,4.53,7.36c2.46,2.3,2.72,4.74,1.08,7.68
		C41.2,113.79,38.83,118.25,36.63,122.3z"/>
	<path class="st1" d="M81.91,338.66c-2.24,1.25-4.44,2.47-6.64,3.7c-0.68,0.38-1.31,0.83-2.01,1.16c-2.2,1.05-4.18,0.77-5.93-0.95
		c-3.95-3.89-7.84-7.83-11.67-12.02c3.43,0.06,5.9-1.79,8.55-3.31c2.42-1.38,4.82-0.86,6.85,1.09
		C74.75,331.89,78.49,335.41,81.91,338.66z"/>
	<path class="st1" d="M383.64,137.17c-3.08-1.99-5.97-1.39-8.88-0.92c-3.09,0.51-5.21-0.79-6.41-3.7c-1-2.4-2.03-4.78-3.11-7.15
		c-1.04-2.3-2.15-4.56-3.2-7.17c3.28,1.85,6.3-0.04,9.42-0.31c3.27-0.28,4.78,0.5,6.05,3.54c1.87,4.47,3.65,8.98,5.45,13.48
		C383.19,135.51,383.32,136.11,383.64,137.17z"/>
	<path class="st1" d="M330.37,345.4c-1.16-2.66-2-5.15-3.28-7.4c-1.81-3.19-1.64-5.61,0.93-8.26c3.47-3.58,6.88-7.21,10.46-10.97
		c0.12,0.44,0.19,0.79,0.32,1.12c0.64,1.58,1.23,3.19,1.98,4.73c0.55,1.13,1.42,2.1,1.99,3.22c1.21,2.37,0.94,4.19-0.95,6.09
		C337.94,337.88,334.01,341.76,330.37,345.4z"/>
	<path class="st1" d="M16,140c1.25,3.26,3.78,4.59,6.34,5.92c2.87,1.49,3.78,3.81,3,6.95c-1.24,4.96-2.4,9.95-3.72,15.43
		c-1.54-3.54-4.86-4.06-7.52-5.59c-2.78-1.61-3.62-3.41-2.83-6.44c1.27-4.82,2.64-9.61,3.99-14.41C15.41,141.36,15.65,140.87,16,140
		z"/>
	<path class="st1" d="M307,38.8c-3.52,0.13-5.21,2.18-7.1,3.98c-0.99,0.94-2.19,1.73-3.42,2.32c-1.39,0.67-2.73,0.37-4.16-0.46
		c-4.56-2.64-9.24-5.09-14.24-7.8c3.7-0.56,5.09-3.62,7.25-5.82c2.28-2.32,4.28-2.64,7.14-1.01c4.22,2.4,8.39,4.89,12.57,7.36
		C305.56,37.67,306.03,38.08,307,38.8z"/>
	<path class="st1" d="M363.96,279.55c1.59,1.7,3.16,3.4,4.75,5.07c0.68,0.71,1.45,1.34,2.11,2.07c1.66,1.84,1.91,3.79,0.67,5.96
		c-2.77,4.88-5.61,9.72-8.67,14.55c-0.69-3.32-2.98-5.28-5.16-7.36c-2.08-1.99-2.29-4.56-0.91-7.05
		C359.27,288.26,361.72,283.67,363.96,279.55z"/>
	<path class="st1" d="M232.72,22.27c3.16-1.33,4.12-3.81,5.13-6.29c0.34-0.84,0.81-1.67,1.4-2.34c1.35-1.53,2.85-2.53,5.15-1.86
		c5.44,1.58,10.94,2.96,16.46,4.7c-3.05,1.48-4.33,4.19-5.76,6.83c-1.35,2.51-3.83,3.43-6.52,2.77c-4.57-1.12-9.16-2.16-13.74-3.23
		C234.33,22.71,233.81,22.56,232.72,22.27z"/>
	<path class="st1" d="M210.27,19.72c1.03-2.29,2-4.4,2.93-6.52c0.42-0.97,0.65-2.04,1.2-2.92c1.08-1.76,2.49-2.99,4.83-2.64
		c5.29,0.79,10.6,1.47,15.9,2.22c0.38,0.05,0.73,0.27,1.37,0.52c-2.82,1.47-3.83,3.94-4.73,6.49c-1.23,3.48-3.24,4.7-6.84,4.32
		c-4.62-0.49-9.25-0.89-13.88-1.33C210.65,19.81,210.26,19.72,210.27,19.72z"/>
	<path class="st1" d="M284.37,26.31c-2.83,0.57-4.41,2.65-5.92,4.8c-2.35,3.35-4.43,3.92-8.23,2.42c-4.62-1.82-9.28-3.55-14.38-5.5
		c3.29-0.91,4.47-3.44,5.96-5.74c2.39-3.69,4.23-4.24,8.31-2.58c4.81,1.96,9.58,4.02,14.36,6.03
		C284.44,25.93,284.41,26.12,284.37,26.31z"/>
	<path class="st1" d="M334.74,78.94c3.45,0.85,5.72-0.71,8.15-1.93c1.21-0.61,2.65-0.92,4.01-1.05c1.44-0.14,2.63,0.47,3.58,1.75
		c3.38,4.55,6.88,9.02,10.2,13.79c-3.41-0.8-6.1,0.75-8.9,1.94c-2.61,1.11-5.01,0.28-6.81-1.97c-2.8-3.52-5.69-6.97-8.54-10.45
		C336,80.5,335.57,79.97,334.74,78.94z"/>
	<path class="st1" d="M9.87,164.92c1.28,2.59,3.7,3.56,6.16,4.46c3.79,1.38,4.9,3.15,4.47,7.1c-0.54,4.94-1.05,9.89-1.65,15.61
		c-1.91-3.58-5.25-3.54-8.01-4.7c-3.18-1.33-4.17-2.81-3.76-6.16c0.66-5.42,1.44-10.82,2.18-16.23
		C9.46,164.98,9.67,164.95,9.87,164.92z"/>
	<path class="st1" d="M38.74,283.91c-2.78-1.48-5.15-1.11-7.54-0.31c-0.92,0.31-1.94,0.37-2.92,0.41c-2.41,0.11-4.03-0.88-4.96-3.08
		c-2.18-5.18-4.3-10.39-6.28-15.79c3.08,1.5,6.08,0.84,9.12,0.42c2.91-0.4,4.88,0.97,6.07,3.69
		C34.27,273.96,36.39,278.64,38.74,283.91z"/>
	<path class="st1" d="M373.31,113.54c-2.76-1.22-5.38-0.49-8.02,0.37c-3.27,1.06-5.66,0.07-7.41-2.85
		c-2.63-4.39-5.33-8.73-7.69-12.59c2.25-0.52,4.62-1.06,6.99-1.63c0.89-0.21,1.74-0.57,2.64-0.74c2.33-0.45,4.32,0.4,5.5,2.43
		c2.83,4.84,5.61,9.71,8.42,14.56C373.6,113.25,373.46,113.4,373.31,113.54z"/>
	<path class="st1" d="M318.59,63.19c2.02-1.07,4.01-2.11,5.98-3.18c0.92-0.5,1.76-1.17,2.71-1.62c2.17-1.05,4.29-0.72,5.95,0.94
		c3.43,3.42,6.83,6.88,10.23,10.33c0.57,0.58,1.05,1.23,1.94,2.28c-3.46-0.8-5.73,0.65-7.98,2.08c-3.31,2.1-5.59,1.84-8.38-0.87
		C325.47,69.69,321.84,66.29,318.59,63.19z"/>
	<path class="st1" d="M27.77,144.32c-1.89-1.51-3.79-3.05-5.7-4.57c-0.77-0.61-1.66-1.11-2.31-1.82c-1.43-1.58-2.24-3.29-1.24-5.54
		c2-4.49,3.83-9.05,5.75-13.58c0.29-0.69,0.67-1.33,1.22-2.41c0.9,3.54,3.33,5.21,5.76,6.92c2.42,1.7,3.01,4.24,1.93,6.98
		C31.27,135.12,29.43,139.98,27.77,144.32z"/>
	<path class="st1" d="M299.5,48.95c1.95-1.39,3.89-2.76,5.81-4.15c0.74-0.54,1.4-1.19,2.16-1.7c2.16-1.46,4.11-1.45,6.18,0.12
		c4.47,3.39,8.89,6.83,13.28,10.52c-3.43,0.08-5.63,2.16-7.97,4.03c-2.34,1.88-4.83,1.76-7.26-0.03c-3.62-2.67-7.31-5.27-10.97-7.9
		C300.17,49.45,299.63,49.04,299.5,48.95z"/>
	<path class="st1" d="M113.08,27.44c-1.39,3.23-0.65,5.91,0.23,8.61c1.02,3.12-0.04,5.57-2.83,7.24c-4.39,2.64-8.74,5.34-13.65,8.36
		c1.45-3.19,0.22-5.66-0.78-8.17c-0.31-0.78-0.56-1.62-0.62-2.44c-0.15-2.12,0.21-3.97,2.39-5.15c4.26-2.31,8.43-4.79,12.65-7.18
		C111.17,28.31,111.92,28,113.08,27.44z"/>
	<path class="st1" d="M390.92,237.11c-1.72-2.93-4.42-3.9-7.13-4.91c-2.87-1.06-4.12-3.24-3.79-6.2c0.58-5.15,1.11-10.31,1.76-16.29
		c1.81,3.53,4.96,3.6,7.63,4.63c3.6,1.4,4.53,2.74,4.08,6.5c-0.59,4.95-1.37,9.88-2.08,14.81
		C391.32,236.05,391.14,236.42,390.92,237.11z"/>
	<path class="st1" d="M27.23,288.33c2.76,1.19,5.39,0.47,8.02-0.38c3.28-1.06,5.68-0.07,7.42,2.82c2.29,3.8,4.67,7.54,7.01,11.31
		c0.35,0.57,0.72,1.13,0.98,1.92c-2.74-0.97-5.07,0.02-7.43,1.01c-0.96,0.4-2.02,0.7-3.05,0.77c-2.05,0.14-3.79-0.29-4.94-2.39
		c-2.7-4.93-5.58-9.75-8.39-14.62C26.98,288.64,27.11,288.48,27.23,288.33z"/>
	<path class="st1" d="M53.52,73.89c-0.38,3.45,1.2,5.46,2.84,7.41c2.84,3.41,2.86,5.34,0.21,8.91c-2.89,3.89-5.69,7.84-8.98,12.41
		c0.18-3.96-2.57-5.62-4.4-7.9c-2.31-2.88-2.41-4.81-0.21-7.72c2.89-3.81,5.88-7.55,8.84-11.31C52.18,75.22,52.64,74.81,53.52,73.89
		z"/>
	<path class="st1" d="M64.95,321.97c-2.26,0.9-4.47,1.77-6.68,2.65c-0.98,0.39-1.92,0.92-2.93,1.16c-2.02,0.47-3.83,0.25-5.23-1.63
		c-3.39-4.55-6.89-9.03-10.23-13.78c3.29,0.67,5.95-0.66,8.69-1.88c2.73-1.22,5.21-0.41,7.03,1.87
		C58.78,314.38,62.02,318.33,64.95,321.97z"/>
	<path class="st1" d="M62.58,82.61c-1.14-2.08-2.27-4.18-3.42-6.26c-0.47-0.86-1.12-1.65-1.45-2.56c-0.74-2.05-0.96-4.01,0.91-5.78
		c3.62-3.43,7.1-7,10.66-10.5c0.48-0.47,1.04-0.87,1.89-1.57c-0.62,3.48,0.96,5.87,2.49,8.3c1.78,2.82,1.34,5.33-0.97,7.68
		C69.15,75.54,65.74,79.26,62.58,82.61z"/>
	<path class="st1" d="M143.7,373.41c-1.59,1.98-3.12,3.88-4.64,5.79c-0.57,0.71-1.03,1.53-1.68,2.16c-1.6,1.57-3.37,2.37-5.69,1.36
		c-5.2-2.25-10.46-4.37-15.67-6.79c3.11-0.97,4.77-3.29,6.42-5.67c1.84-2.65,4.38-3.33,7.3-2.13c2.4,0.99,4.82,1.95,7.25,2.87
		C139.35,371.89,141.74,372.71,143.7,373.41z"/>
	<path class="st1" d="M79.15,65.67c-0.85-2.24-1.71-4.53-2.59-6.81c-0.33-0.85-0.81-1.66-1.03-2.54c-0.55-2.24-0.39-4.2,1.76-5.77
		c4.48-3.26,8.82-6.71,13.49-9.97c-0.69,3.47,0.93,6.2,2.09,9.08c0.98,2.44,0.13,4.84-1.92,6.47
		C86.89,59.38,82.86,62.68,79.15,65.67z"/>
	<path class="st1" d="M384.45,261.45c-1.11-2.8-3.52-4.1-5.96-5.37c-3.12-1.63-4.04-3.84-3.2-7.26c1.07-4.37,2.04-8.76,3.06-13.14
		c0.14-0.59,0.32-1.16,0.33-1.2c2.14,1.31,4.28,2.63,6.42,3.93c0.78,0.47,1.66,0.83,2.35,1.4c1.66,1.37,2.66,2.96,1.99,5.32
		c-1.53,5.39-2.93,10.83-4.38,16.24C384.86,261.4,384.65,261.43,384.45,261.45z"/>
	<path class="st1" d="M309.39,361.53c1.03-3.36-0.16-5.96-1.38-8.58c-1.34-2.87-0.64-5.41,1.8-7.37c3.45-2.77,6.86-5.6,10.29-8.4
		c0.52-0.43,1.06-0.84,1.23-0.98c0.98,2.45,1.93,4.84,2.88,7.23c0.29,0.72,0.64,1.41,0.87,2.15c0.72,2.27,0.2,4.14-1.67,5.58
		c-3.95,3.05-7.94,6.05-11.92,9.05C310.95,360.62,310.34,360.95,309.39,361.53z"/>
	<path class="st1" d="M352.29,300.27c1.42,1.95,2.86,3.93,4.31,5.91c0.58,0.79,1.32,1.5,1.76,2.36c0.99,1.89,1.31,3.73-0.22,5.66
		c-3.49,4.38-6.85,8.86-10.58,13.28c-0.21-3.57-2.54-5.76-4.4-8.26c-1.54-2.06-1.29-4.68,0.25-6.76
		C346.49,308.28,349.52,304.08,352.29,300.27z"/>
	<path class="st1" d="M93.67,363.26c3.63-0.4,5.53-2.69,7.58-4.81c2.1-2.18,4.6-2.43,7.22-0.99c4.13,2.27,8.3,4.46,12.46,6.69
		c0.41,0.22,0.81,0.47,0.79,0.46c-1.78,1.68-3.56,3.34-5.32,5.02c-0.76,0.73-1.42,1.61-2.28,2.19c-1.7,1.15-3.44,1.71-5.48,0.46
		c-4.26-2.61-8.61-5.06-12.92-7.59C95.14,364.33,94.61,363.9,93.67,363.26z"/>
	<path class="st1" d="M288.07,374.39c0.89-3.36-0.07-6.21-0.95-9.12c-0.8-2.66,0.38-5.12,2.75-6.55c4.45-2.68,8.86-5.41,13.92-8.5
		c-1.57,3.29-0.1,5.7,0.77,8.26c1.42,4.18,0.76,5.99-2.98,8.19C297.11,369.29,292.58,371.82,288.07,374.39z"/>
	<path class="st1" d="M73.4,347.97c3.71-0.03,5.9-2.01,8.21-3.87c2.24-1.81,4.93-1.65,7.27,0.09c4.12,3.05,8.28,6.03,12.98,9.45
		c-3.86-0.06-5.57,2.64-7.86,4.47c-2.9,2.33-4.72,2.38-7.71,0.13c-3.59-2.71-7.13-5.5-10.67-8.28
		C74.98,349.45,74.41,348.88,73.4,347.97z"/>
	<path class="st1" d="M371.56,140.81c2.53,0.06,5.04,0.29,7.54,0.15c4.59-0.26,6.32,0.76,7.51,5.08c1.37,4.99,2.62,10.01,3.75,15.19
		c-2.89-2.01-6.04-1.7-9.17-1.69c-1.21,0-2.22-0.29-3.04-0.84s-1.44-1.36-1.89-2.39c-0.13-0.3-0.24-0.61-0.33-0.94
		c-1.3-4.45-2.67-8.87-4.01-13.31C371.74,141.47,371.58,140.89,371.56,140.81z"/>
	<path class="st1" d="M160.79,10.88c-2.11,2.91-1.97,5.84-1.9,8.8c0.07,3.1-1.45,4.89-4.46,5.7c-2.51,0.68-5.02,1.39-7.51,2.15
		c-2.42,0.74-4.81,1.55-7.58,2.26c2.38-2.95,0.92-6.1,0.93-9.17c0-3.2,1.26-4.92,4.36-5.76c4.55-1.23,9.13-2.38,13.69-3.55
		C158.98,11.14,159.67,11.07,160.79,10.88z"/>
	<path class="st1" d="M374.04,257.09c1.78,1.67,3.57,3.35,5.36,5.01c0.67,0.62,1.47,1.13,2.05,1.82c1.44,1.72,2.11,3.53,0.93,5.79
		c-2.6,4.97-5.06,10.02-7.86,15.05c-0.83-3.27-3.21-5.08-5.5-7.01c-2.3-1.95-2.64-4.49-1.34-7.18
		C369.9,265.95,372.05,261.3,374.04,257.09z"/>
	<path class="st1" d="M10.42,241.33c2.64,0.34,5.08,0.9,7.52,0.93c4.24,0.04,5.8,1.09,6.94,5.07c1.35,4.73,2.81,9.42,4.39,14.67
		c-3.31-2.46-6.67-0.96-9.93-1.12c-2.63-0.13-4.25-1.24-4.93-3.71c-1.33-4.89-2.58-9.79-3.85-14.7
		C10.43,241.96,10.43,241.4,10.42,241.33z"/>
	<path class="st1" d="M6.98,215.47c2.22,2.26,5.08,2.53,7.97,2.76c2.9,0.23,4.8,2.14,5.25,5c0.72,4.59,1.52,9.16,2.27,13.74
		c0.09,0.54,0.12,1.09,0.25,2.23c-2.75-2.71-5.9-1.98-8.82-2.32c-3.49-0.41-4.83-1.58-5.33-5.07c-0.77-5.35-1.42-10.72-2.12-16.09
		C6.63,215.64,6.81,215.56,6.98,215.47z"/>
	<path class="st1" d="M118.32,38.92c-0.26-2.41-0.51-4.85-0.77-7.28c-0.1-0.91-0.29-1.81-0.34-2.72c-0.13-2.41,0.81-4.01,3.05-4.95
		c5.17-2.18,10.36-4.29,15.79-6.24c-1.55,3.03-0.85,5.97-0.42,8.93c0.43,2.99-0.91,5.02-3.72,6.24
		C127.21,34.93,122.53,37.05,118.32,38.92z"/>
	<path class="st1" d="M377.96,163.68c2.5,0.4,4.99,0.81,7.49,1.2c0.83,0.13,1.7,0.1,2.51,0.33c2.15,0.61,3.76,1.68,4.03,4.24
		c0.53,4.97,1.24,9.92,1.86,14.88c0.07,0.6,0.01,1.22,0.01,2.25c-2.64-2.6-5.76-2.66-8.81-3.03c-2.58-0.31-4.3-2.33-4.68-4.89
		c-0.69-4.66-1.51-9.31-2.26-13.97C378,164.17,377.95,163.64,377.96,163.68z"/>
	<path class="st1" d="M6.51,189.7c2.04,2.84,4.61,3.5,7.25,4.06c3.55,0.75,5.09,2.67,5.1,6.28c0,4.98,0,9.96,0,15.06
		c-2.29-2.78-6.03-2-9.17-3.17c-2.38-0.89-3.5-2.32-3.51-4.85c-0.03-4.92,0.02-9.84,0.06-14.75C6.24,191.65,6.37,190.97,6.51,189.7z
		"/>
	<path class="st1" d="M163.09,23.2c0.38-2.46,0.76-4.89,1.13-7.32c0.16-1.04,0.16-2.13,0.49-3.12c0.63-1.89,1.71-3.25,3.99-3.49
		c5.11-0.53,10.2-1.26,15.3-1.88c0.52-0.06,1.05-0.01,1.98-0.01c-2.56,2.49-2.71,5.45-3.02,8.38c-0.3,2.84-2.15,4.66-4.93,5.08
		C172.89,21.63,167.76,22.46,163.09,23.2z"/>
	<path class="st1" d="M210.42,7.02c-1.04,2.52-2.24,4.8-2.91,7.22c-1.03,3.77-2.61,5.25-6.41,5.25c-4.97,0-9.95,0-14.34,0
		c0.64-2.36,1.41-5.11,2.12-7.88c0.92-3.58,2.37-4.81,6.03-4.82c4.51-0.02,9.02,0.03,13.53,0.07C209.26,6.87,210.07,7,210.42,7.02z"
		/>
	<path class="st1" d="M185.57,403.45c-2.31,2.73-4.71,5.68-7.26,8.51c-0.42,0.47-1.54,0.75-2.15,0.54
		c-3.22-1.08-6.47-1.37-9.78-0.74c-1.36,0.26-2.21-0.15-2.97-1.31c-1.75-2.69-3.63-5.3-5.47-7.96
		C163.44,399.03,180.24,400.73,185.57,403.45z"/>
	<path class="st1" d="M165.33,418.23c3.62,0.39,7.07,0.77,10.55,1.15c0.59,4.39-2.16,9.62-6.24,11.53c-0.67,0.32-1.51,0.61-2.2,0.51
		c-6.58-1.01-12.17-4.04-17.4-8.76C155.81,422.21,161.7,423.32,165.33,418.23z"/>
	<path class="st1" d="M176.17,432.45c4.24-3.94,6.34-8.35,4.32-14.72c6.53,1.88,12.52,3.61,18.66,5.38
		C195.37,429.18,182.18,434.45,176.17,432.45z"/>
	<path class="st1" d="M137.93,411.61c1.42,4.43,3.24,8.67,7.55,11.56c-2.33,2.05-4.56,4-6.86,6.03c-4.16-3.62-8.15-7.73-14.46-5.17
		C125.88,419.42,133.46,412.53,137.93,411.61z"/>
	<path class="st1" d="M210.33,395.85c3.64-2.99,6.91-5.83,10.37-8.44c0.99-0.75,2.51-0.78,3.77-1.2c2.51-0.84,5.01-1.72,8.07-2.77
		c-0.78,3.61-1.33,6.84-2.2,9.97c-0.65,2.34-2.21,3.84-4.93,3.71c-4.05-0.19-8.11-0.24-12.16-0.45
		C212.3,396.64,211.39,396.16,210.33,395.85z"/>
	<path class="st4" d="M270.76,433.76c-3.2,2.72-6.39,5.44-9.44,8.03c-2.31-2.12-4.51-4.14-6.67-6.13
		C258.02,429.84,266.37,428.86,270.76,433.76z"/>
	<path class="st4" d="M118.55,430.83c4.42-4.62,11.59-3.58,15.87,2.04c-2.09,2.18-4.16,4.34-6.39,6.67
		c-1.69-1.53-3.3-2.97-4.89-4.43C121.6,433.68,120.08,432.24,118.55,430.83z"/>
</g>
<g id="Ebene_5">
	<path class="st1" d="M258.39,270.24c-0.6,0.67-1.64,1.62-2.6,2.8c-1.77,2.16-3.19,3.9-4.4,6c-1.73,3-2.41,5.64-2.8,7.2
		c-1.09,4.36-2.2,8.8-0.4,13.2c0.85,2.07,1.99,3.28,5.16,9.18c0.22,0.41,0.5,0.93,0.84,1.62c0.66,1.31,0.79,1.68,2.5,5.56
		c0.46,1.03,0.78,1.76,1.1,2.84c0.2,0.67,0.52,1.23,0.6,1.6c0-16,0-32,0-48.01C258.39,271.97,258.39,270.51,258.39,270.24"/>
	<path class="st4" d="M258.39,270.24c0.6,0.67,1.64,1.62,2.6,2.8c1.77,2.16,3.19,3.9,4.4,6c1.73,3,2.41,5.64,2.8,7.2
		c1.09,4.36,2.2,8.8,0.4,13.2c-0.85,2.07-1.99,3.28-5.16,9.18c-0.22,0.41-0.5,0.93-0.84,1.62c-0.66,1.31-0.79,1.68-2.5,5.56
		c-0.46,1.03-0.78,1.76-1.1,2.84c-0.2,0.67-0.52,1.23-0.6,1.6c0-16,0-32,0-48.01C258.39,271.97,258.39,270.51,258.39,270.24"/>
	<g id="XMLID_1_">
		<g>
			<path d="M264.09,321.08c1.58,0.79,2.11,2.22,2.11,3.48c0,0.82-0.12,2.01-0.84,2.66c-1.32,1.2-4.23,1.41-6.96,1.43
				c-0.1,0,0.09-8.39,0-8.39C260.41,320.26,262.71,320.39,264.09,321.08z"/>
		</g>
		<g>
			<path class="st1" d="M252.86,314.17c0.15,0.19,0.3,0.39,0.45,0.6"/>
			<path class="st1" d="M252.45,313.63c0.14,0.16,0.27,0.34,0.41,0.53"/>
			<path class="st1" d="M241.68,314.36c0.15-0.17,0.32-0.33,0.51-0.5c0.5-0.44,1.71-1.49,3.6-2c0.87-0.24,2.6-0.71,4.4,0
				c0.56,0.22,1.02,0.5,1.44,0.89c0.14,0.12,0.28,0.26,0.41,0.41"/>
			<path class="st1" d="M238.34,319.25c0.07-0.09,0.13-0.19,0.2-0.29"/>
			<path class="st1" d="M231.91,321.19c0.3,0.27,0.85,0.27,1.48,0.27c0.52,0,2.62,0.01,4.4-1.6c0.18-0.16,0.32-0.31,0.45-0.45"/>
			<path class="st1" d="M232.82,320.1c-0.39,0.42-0.93,0.5-1.05,0.7"/>
			<path class="st1" d="M233.02,317.25c0.02,0.06,0.03,0.12,0.04,0.19"/>
			<path class="st1" d="M232.99,317.07c0.01,0.05,0.02,0.11,0.03,0.17"/>
			<path class="st1" d="M230.9,313.8c0.28,0.53,0.58,0.92,0.88,1.27"/>
			<path class="st1" d="M230.59,313.07c0.1,0.27,0.2,0.5,0.31,0.72"/>
			<path class="st1" d="M230.31,312.02c0.02,0.11,0.05,0.22,0.07,0.34"/>
			<path class="st1" d="M230.26,311.69c0.01,0.11,0.03,0.21,0.05,0.32"/>
			<path class="st1" d="M230.4,307.33c-0.04,0.2-0.07,0.42-0.1,0.64"/>
			<path class="st1" d="M230.52,306.73c-0.04,0.18-0.08,0.38-0.12,0.59"/>
			<path class="st1" d="M231.99,302.75c-0.17,0.29-0.32,0.59-0.45,0.89"/>
			<path class="st1" d="M235.46,299.84c-0.74,0.3-1.64,0.78-2.47,1.62v0.01"/>
			<path class="st1" d="M247.78,302.52c-0.26-0.25-0.52-0.46-0.79-0.66c-2.35-1.74-4.58-2.27-5.2-2.4c-1.15-0.25-2.99-0.63-5.2,0
				c-0.19,0.06-0.43,0.12-0.7,0.22"/>
			<path class="st1" d="M249.97,305.03c-0.2-0.27-0.4-0.52-0.6-0.75"/>
			<path class="st1" d="M250.64,305.91c-0.23-0.31-0.45-0.6-0.67-0.87"/>
			<path class="st1" d="M258.19,320.26c-0.03-0.09-0.07-0.19-0.11-0.29"/>
			<path class="st1" d="M231.74,320.98c0.01,0.03,0.03,0.06,0.05,0.09c0.03,0.05,0.07,0.09,0.12,0.12c0.29,0.28,0.84,0.28,1.48,0.28
				c0.52,0,2.62,0.01,4.4-1.6c0.19-0.17,0.33-0.32,0.45-0.46c0.04-0.05,0.08-0.11,0.1-0.16c0.08-0.09,0.14-0.19,0.2-0.29
				c0.3-0.52,0.58-1.2,1.65-2.69c0.63-0.87,1.02-1.41,1.49-1.91c0.16-0.16,0.32-0.32,0.51-0.49c0.5-0.44,1.71-1.49,3.6-2
				c0.87-0.24,2.6-0.71,4.4,0c0.56,0.22,1.02,0.5,1.44,0.88c0.14,0.13,0.27,0.26,0.41,0.41c0.13,0.14,0.27,0.3,0.41,0.47
				c0.13,0.16,0.26,0.34,0.41,0.53v0.01c0.14,0.19,0.29,0.39,0.45,0.6c0.14,0.22,0.3,0.45,0.48,0.69v0.01"/>
			<path class="st1" d="M233.14,319.4c-0.03,0.19-0.08,0.35-0.15,0.47c-0.05,0.09-0.11,0.16-0.17,0.23
				c-0.38,0.42-0.91,0.51-1.05,0.7c-0.03,0.04-0.05,0.08-0.04,0.12"/>
			<path class="st1" d="M233.02,317.28c0.02,0.05,0.03,0.1,0.04,0.16c0,0.01,0,0.02,0,0.04c0.01,0.06,0.02,0.12,0.03,0.18"/>
			<path class="st1" d="M230.31,312.05c0.03,0.1,0.05,0.2,0.07,0.31c0.05,0.23,0.12,0.47,0.21,0.71c0.1,0.27,0.2,0.51,0.31,0.72
				c0,0.01,0,0.01,0,0.01c0.27,0.54,0.58,0.93,0.88,1.27c0.52,0.63,1.02,1.1,1.21,2c0,0.01,0,0.02,0,0.03
				c0.01,0.04,0.02,0.09,0.03,0.14v0.01"/>
			<path class="st1" d="M230.26,311.72c0.02,0.1,0.03,0.19,0.05,0.29c0,0.01,0,0.01,0,0.01"/>
			<path class="st1" d="M258.18,320.26c-0.03-0.09-0.06-0.19-0.1-0.29c-0.27-0.74-0.64-1.74-1.09-2.9c-0.94-2.41-1.41-3.62-2-4.8
				c-0.76-1.51-1.57-2.61-3.2-4.8c-0.42-0.57-0.81-1.09-1.15-1.56c-0.24-0.31-0.46-0.6-0.67-0.87c0,0,0,0,0-0.01
				c-0.21-0.27-0.41-0.52-0.6-0.75c-0.57-0.72-1.08-1.28-1.59-1.76c-0.26-0.24-0.52-0.45-0.79-0.65c-2.35-1.74-4.58-2.27-5.2-2.4
				c-1.15-0.25-2.99-0.63-5.2,0c-0.19,0.05-0.43,0.12-0.7,0.21c-0.14,0.05-0.28,0.1-0.43,0.16c-0.74,0.31-1.64,0.79-2.47,1.63
				c-0.42,0.42-0.74,0.85-1,1.28c-0.17,0.29-0.32,0.59-0.45,0.89c-0.2,0.46-0.37,0.93-0.55,1.43c-0.12,0.34-0.31,0.91-0.47,1.66
				c0,0.01,0,0.02,0,0.03c-0.05,0.17-0.08,0.36-0.12,0.56c0,0,0,0,0,0.01c0,0.01,0,0.02,0,0.03c-0.04,0.2-0.07,0.4-0.1,0.61
				c0,0.01,0,0.01,0,0.01"/>
			<line class="st1" x1="258.19" y1="320.27" x2="258.19" y2="320.26"/>
			<path class="st1" d="M258.18,320.26c-0.28-0.76-0.68-1.85-1.19-3.16c-0.94-2.41-1.41-3.62-2-4.8c-0.76-1.51-1.57-2.61-3.2-4.8
				c-2.24-3.03-3.36-4.54-4.8-5.6c-2.35-1.74-4.58-2.27-5.2-2.4c-1.15-0.25-2.99-0.63-5.2,0c-0.77,0.22-2.27,0.66-3.6,2
				c-1.11,1.12-1.53,2.28-2,3.6c-0.12,0.34-0.31,0.91-0.47,1.66c-0.04,0.19-0.08,0.39-0.12,0.6c-0.04,0.2-0.07,0.4-0.1,0.62
				c-0.06,0.47-0.1,0.98-0.11,1.52c-0.02,0.77-0.03,1.47,0.07,2.19c-0.01,0.01,0,0.02,0,0.03c0.01,0.1,0.03,0.2,0.05,0.3
				c0,0.01,0,0.02,0,0.03c0.06,0.34,0.15,0.69,0.28,1.05c0.77,2.17,2.06,2.4,2.4,4c0.01,0.05,0.02,0.1,0.03,0.15
				c0,0.01,0,0.02,0,0.03c0.02,0.06,0.03,0.13,0.04,0.2c0.01,0.05,0.02,0.11,0.03,0.18c0.08,0.56,0.13,1.24,0.05,1.74
				c-0.03,0.2-0.08,0.37-0.15,0.5c-0.41,0.7-1.24,0.72-1.26,1.02c0,0.02,0,0.04,0.01,0.06c0,0.04,0.02,0.08,0.05,0.12
				c0.27,0.4,0.88,0.4,1.6,0.4c0.52,0,2.62,0.01,4.4-1.6c1-0.9,0.68-1.22,2.4-3.6c0.84-1.16,1.26-1.74,2-2.4
				c0.5-0.44,1.71-1.49,3.6-2c0.87-0.24,2.6-0.71,4.4,0c1.49,0.58,2.24,1.65,3.6,3.6c1.29,1.84,1.96,3.74,2.37,4.84"/>
			<path class="st1" d="M258.39,320.26c-0.07,0-0.13,0-0.2,0c0,0,0,0-0.01,0c-0.65,0-1.34,0.02-2.02,0.08
				c-1.21,0.1-2.36,0.3-3.17,0.72c-1.5,0.77-2,2.16-2,3.4c0,0.8,0.12,1.96,0.8,2.6c1.3,1.21,3.92,1.6,6.6,1.6"/>
			<path class="st1" d="M258.4,320.26c2.01,0,4.31,0.13,5.69,0.82c1.58,0.79,2.11,2.22,2.11,3.48c0,0.82-0.12,2.01-0.84,2.66
				c-1.32,1.2-4.23,1.41-6.96,1.43C258.3,328.65,258.49,320.26,258.4,320.26z"/>
		</g>
	</g>
	<path class="st4" d="M258.59,320.26c0.28-0.76,0.68-1.87,1.2-3.2c0.94-2.41,1.41-3.62,2-4.8c0.76-1.51,1.57-2.61,3.2-4.8
		c2.24-3.03,3.36-4.54,4.8-5.6c2.35-1.74,4.58-2.27,5.2-2.4c1.15-0.25,2.99-0.63,5.2,0c0.77,0.22,2.27,0.66,3.6,2
		c1.11,1.12,1.53,2.28,2,3.6c0.24,0.68,0.76,2.28,0.8,4.4c0.03,1.27,0.05,2.34-0.4,3.6c-0.77,2.17-2.06,2.4-2.4,4
		c-0.16,0.78-0.34,2.21,0,2.8c0.48,0.82,1.53,0.71,1.2,1.2c-0.27,0.4-0.88,0.4-1.6,0.4c-0.52,0-2.62,0.01-4.4-1.6
		c-1-0.9-0.68-1.22-2.4-3.6c-0.84-1.16-1.26-1.74-2-2.4c-0.5-0.44-1.71-1.49-3.6-2c-0.87-0.24-2.6-0.71-4.4,0
		c-1.49,0.58-2.24,1.65-3.6,3.6c-1.33,1.9-2.48,5.12-2.8,6c-0.05,0.14-0.07,0.19-0.07,0.18c0,0,0.09-0.27,0.09-0.26
		c0,0,0,0.06-0.02,0.08C260.13,321.51,259.69,321.22,258.59,320.26z"/>
	<path class="st4" d="M258.39,358.37c-0.03-2.42,0.07-27.36,0.01-29.74"/>
	<path class="st4" d="M258.39,328.93c1,0.33,2.28,0.62,2.85,0.84c0.92,0.35,1.06,0.43,2.06,0.81c0.92,0.34,1.64,0.59,2.3,0.82
		c1.08,0.38,1.96,0.7,3.19,1.3c3.26,1.59,4.02,2.69,4.34,3.28c0.45,0.8,0.58,1.49,0.76,2.41c0.14,0.71-0.44,2.37-0.46,3.59
		c-0.03,2,1.38,1.59,0.77,2.01c-0.56,0.38-1.94,0.17-2.6-0.04c-0.65-0.2-1.38-0.41-2.2-0.05c-0.92,0.41-0.71,1.56-2.07,3.97
		c-1.11,1.96-2.05,2.53-2.86,3.55c-1.82,2.3-2.95,2.4-4.48,4.72c-0.59,0.9-0.65,1.24-0.99,1.78c-0.14,0.23-0.29,0.45-0.29,0.45"/>
	<path class="st1" d="M258.33,336.76c0.03-2.42-0.01-5.75,0.05-8.13"/>
	<path class="st1" d="M258.39,328.93c-1,0.33-2.28,0.62-2.85,0.84c-0.92,0.35-1.06,0.43-2.06,0.81c-0.92,0.34-1.64,0.59-2.3,0.82
		c-1.08,0.38-1.96,0.7-3.19,1.3c-3.26,1.59-4.02,2.69-4.34,3.28c-0.45,0.8-0.58,1.49-0.76,2.41c-0.14,0.71,0.44,2.37,0.46,3.59
		c0.03,2-1.38,1.59-0.77,2.01c0.56,0.38,1.94,0.17,2.6-0.04c0.65-0.2,1.38-0.41,2.2-0.05c0.92,0.41,0.71,1.56,2.07,3.97
		c1.11,1.96,2.05,2.53,2.86,3.55c1.82,2.3,2.95,2.4,4.48,4.72c0.59,0.9,0.65,1.24,0.99,1.78c0.14,0.23,0.29,0.45,0.29,0.45"/>
	<polygon points="258.76,269.91 258.39,270.54 258.02,269.91 258.39,269.54 	"/>
</g>
<g id="Ebene_6">
	<g>
		<path class="st1" d="M184.86,271.79"/>
		<path class="st1" d="M153.06,357.79c0.97,0,3.39-1.5,3.9-2.44l0,0l0.97-1.45c0.01-0.01,0.01-0.02,0.02-0.03l0.48-0.96l0.37-0.73
			c0.07-0.14,0.12-0.29,0.15-0.44c0.14-0.73,0.61-2.06,0.68-2.57c0.5-3.49,1.19-5.34,1.78-7.95c1.21-5.32,1.4-4.1,1.95-7.31
			c0.52-3,0.53-5.09,1.95-5.85c1.01-0.54,0.64-0.28,1.95-0.49c0.99-0.15,1.69-0.57,2.44-1.46c0.89-1.06,2.28-2.35,2.92-3.9
			c0.55-1.33,1.51-2.61,1.95-3.9c0.7-2.04,1.11-3.96,1.95-7.8c0.35-1.62,1.86-8.73,0.49-12.19c-0.18-0.45-0.56-1.23-0.97-1.95
			c-0.59-1.02-1-1.67-1.48-2.09c-0.16-0.14-0.33-0.25-0.52-0.35c-0.53-0.26-0.89-0.27-0.92-0.49c-0.04-0.31,0.72-0.56,1.46-0.97
			c1.44-0.81,2.24-1.95,2.92-2.92c0.55-0.79,0.95-1.57,1.46-2.92c0.74-1.96,1.58-4.16,1.95-7.31c0.44-3.73,0.87-7.37-0.49-8.29
			c-1.53-1.04-5.89,1.06-17.55,13.16"/>
		<path class="st1" d="M150.13,357.79"/>
		<path class="st1" d="M153.55,357.79"/>
		<path class="st1" d="M153.06,357.79c-0.05,0-0.49,0-1.46,0c-1.54,0-1.75-0.03-1.82-0.05c-1.11-0.27-3.09-1.55-3.54-2.39l0,0
			l-0.97-1.45c-0.01-0.01-0.01-0.02-0.02-0.03l-0.48-0.96l-0.37-0.73c-0.07-0.14-0.12-0.29-0.15-0.44
			c-0.14-0.73-0.61-2.06-0.68-2.57c-0.5-3.49-1.19-5.34-1.78-7.95c-1.21-5.32-1.4-4.1-1.95-7.31c-0.52-3-0.53-5.09-1.95-5.85
			c-1.01-0.54-0.64-0.28-1.95-0.49c-0.99-0.15-1.69-0.57-2.44-1.46c-0.89-1.06-2.28-2.35-2.92-3.9c-0.55-1.33-1.51-2.61-1.95-3.9
			c-0.7-2.04-1.11-3.96-1.95-7.8c-0.35-1.62-1.86-8.73-0.49-12.19c0.18-0.45,0.56-1.23,0.97-1.95c0.78-1.36,1.19-2.06,1.95-2.44
			c0.53-0.26,0.95-0.27,0.97-0.49c0.04-0.31-0.72-0.56-1.46-0.97c-1.44-0.81-2.24-1.95-2.92-2.92c-0.55-0.79-0.95-1.57-1.46-2.92
			c-0.74-1.96-1.58-4.16-1.95-7.31c-0.44-3.73-0.87-7.37,0.49-8.29c1.53-1.04,5.89,1.06,17.55,13.16"/>
		<path class="st1" d="M145.26,282.72c7.02-1.38,14.88,0.25,17.61,1.46"/>
		<path class="st1" d="M140.33,284.18c1.58-0.76,2.63-1.01,4.93-1.46"/>
		<path class="st1" d="M142.16,308.05c0.67,1.38,1.15,2.71,1.38,3.79c0.28,1.28-0.26,3.32-0.72,3.54c-0.53,0.26-0.99-1.58-1.97-2.9
			c-0.59-0.79-1.2-1.8-1.76-2.93c-1.48-3.02-1.51-4.97-0.66-5.38S140.69,305.03,142.16,308.05z"/>
		<path class="st1" d="M161.26,308.05c-0.67,1.38-1.15,2.71-1.38,3.79c-0.28,1.28,0.26,3.32,0.72,3.54c0.53,0.26,0.99-1.58,1.97-2.9
			c0.59-0.79,1.2-1.8,1.76-2.93c1.48-3.02,1.51-4.97,0.66-5.38S162.74,305.03,161.26,308.05z"/>
		<path class="st1" d="M155.83,352.79c-0.98,1.26-2.51,2.07-4.23,2.07c-1.48,0-2.93-0.98-3.9-1.95"/>
		<line class="st1" x1="121.86" y1="272.97" x2="125.76" y2="272.97"/>
		<line class="st1" x1="121.86" y1="274.43" x2="126.73" y2="274.43"/>
		<line class="st1" x1="121.86" y1="275.9" x2="127.22" y2="275.9"/>
		<line class="st1" x1="175.97" y1="275.9" x2="181.33" y2="275.9"/>
		<line class="st1" x1="176.46" y1="274.43" x2="181.33" y2="274.43"/>
		<line class="st1" x1="177.43" y1="272.97" x2="181.33" y2="272.97"/>
	</g>
</g>
<polygon points="259.12,358.65 258.38,359.67 257.65,358.63 258.38,357.97 "/>
</svg>
